<?xml version="1.0" encoding="utf-8"?>
<!-- Generator: Adobe Illustrator 16.0.2, SVG Export Plug-In . SVG Version: 6.00 Build 0)  -->
<!DOCTYPE svg PUBLIC "-//W3C//DTD SVG 1.1//EN" "http://www.w3.org/Graphics/SVG/1.1/DTD/svg11.dtd">
<svg version="1.1" id="Layer_1" xmlns="http://www.w3.org/2000/svg" xmlns:xlink="http://www.w3.org/1999/xlink" x="0px" y="0px"
	 width="110px" height="110px" viewBox="0 0 110 110" enable-background="new 0 0 110 110" xml:space="preserve">
<path fill="#FFFFFF" d="M102.406,66.159c-0.179-0.122-0.357-0.233-0.536-0.351c-0.198-0.131-0.397-0.267-0.596-0.392l-0.078-0.049
	c-0.371-0.232-0.74-0.455-1.104-0.664c-0.908-0.521-1.839-0.999-2.768-1.42c-0.677-0.308-1.37-0.592-2.059-0.845
	c-0.672-0.247-1.358-0.471-2.04-0.666c-0.444-0.127-0.898-0.244-1.349-0.35c-0.443-0.103-0.893-0.196-1.336-0.276
	c-1.719-0.312-3.475-0.457-5.208-0.435c-0.419,0.006-0.844,0.021-1.262,0.047c-1.817,0.109-3.643,0.406-5.425,0.88
	c-0.378,0.1-0.762,0.211-1.141,0.329c-0.377,0.117-0.748,0.241-1.115,0.371c-1.251,0.447-2.486,0.987-3.669,1.605
	c-0.331,0.173-0.657,0.351-0.977,0.533c-0.159,0.092-0.318,0.185-0.476,0.278c-0.313,0.188-0.621,0.38-0.923,0.576
	c-0.77,0.501-1.504,1.032-2.202,1.591c-0.683,0.547-1.33,1.119-1.936,1.715l0.006,0.007c0.028,0.025,0.06,0.051,0.091,0.077
	c0.008,0.006,0.015,0.012,0.022,0.019l0.005,0.004c0.023,0.019,0.043,0.033,0.063,0.049c0.044,0.034,0.091,0.069,0.145,0.107
	c0.077,0.055,0.148,0.102,0.222,0.149l0.057,0.036c0.081,0.052,0.165,0.104,0.253,0.156c0.141,0.084,0.287,0.168,0.44,0.253
	l0.239,0.131c0.166,0.089,0.337,0.18,0.514,0.271c0.181,0.093,0.367,0.187,0.558,0.282l0,0c0.001,0.001,0.001,0.001,0.002,0.001
	c0.189,0.096,0.385,0.191,0.583,0.289l0.587,0.289c0.426,0.208,0.861,0.422,1.299,0.641c0.216,0.108,0.433,0.218,0.648,0.329
	s0.431,0.224,0.645,0.338c0.324,0.172,0.644,0.348,0.953,0.525c0.438,0.251,0.844,0.499,1.207,0.738
	c0.301,0.199,0.58,0.396,0.832,0.589c0.089,0.068,0.177,0.137,0.261,0.205c0.768,0.621,1.309,1.23,1.646,1.856
	c0.048,0.09,0.092,0.18,0.132,0.27c0.358,0.809,0.374,1.656,0.046,2.452c-0.085,0.205-0.191,0.407-0.321,0.606
	c-0.905,1.396-2.916,2.655-6.24,3.92c-2.158,0.82-4.514,1.223-7.202,1.229h-0.058h-0.002c-0.001,0-0.002,0-0.002,0
	c-0.341,0-0.689-0.009-1.043-0.022c-0.102-0.003-0.203-0.009-0.304-0.013c-0.28-0.014-0.563-0.031-0.849-0.053
	c-0.076-0.005-0.152-0.01-0.229-0.017c-0.356-0.028-0.717-0.062-1.083-0.104c-0.404-0.045-0.812-0.1-1.221-0.159
	c-0.029-0.005-0.06-0.009-0.09-0.014c-0.362-0.054-0.727-0.111-1.092-0.175c-0.046-0.008-0.091-0.016-0.136-0.023
	c-0.372-0.065-0.746-0.135-1.122-0.209c-0.019-0.004-0.038-0.007-0.057-0.011c-1.206-0.241-2.425-0.525-3.651-0.843
	c-0.052-0.013-0.105-0.026-0.157-0.04c-0.359-0.094-0.719-0.189-1.079-0.288c-0.046-0.012-0.093-0.024-0.139-0.037
	c-2.496-0.685-5.009-1.474-7.483-2.251c-1.762-0.554-3.554-1.116-5.335-1.64c-0.028-0.008-0.056-0.017-0.084-0.024
	c-0.369-0.108-0.738-0.214-1.106-0.318c-0.118-0.033-0.236-0.067-0.354-0.1c-0.272-0.076-0.543-0.15-0.814-0.224
	c-0.19-0.051-0.38-0.103-0.569-0.152c-0.189-0.05-0.377-0.098-0.565-0.146c-0.251-0.064-0.502-0.129-0.753-0.19
	c-0.111-0.027-0.221-0.053-0.332-0.079c-1.896-0.454-3.76-0.818-5.56-1.03c-0.004,0-0.009-0.001-0.014-0.001
	c-0.324-0.038-0.645-0.069-0.964-0.097c-0.091-0.008-0.183-0.016-0.273-0.022c-0.269-0.021-0.536-0.038-0.801-0.051
	c-0.067-0.004-0.136-0.009-0.203-0.012c-0.356-0.015-0.712-0.023-1.063-0.023h-0.073c-0.924,0.003-1.817,0.062-2.655,0.173
	c-0.855,0.114-1.772,0.269-2.726,0.459c-0.914,0.183-1.885,0.403-2.887,0.656c-0.432,0.109-0.869,0.227-1.306,0.346
	c-0.224,0.062-0.453,0.126-0.681,0.191l-0.022,0.006c-0.191,0.055-0.383,0.108-0.575,0.164c-0.224,0.065-0.451,0.134-0.678,0.202
	c-0.095,0.028-0.189,0.056-0.284,0.085l-0.265,0.081c-0.017,0.006-0.035,0.011-0.052,0.017c-0.307,0.095-0.616,0.191-0.929,0.291
	c0.09,0.171,0.176,0.344,0.268,0.514c0.084,0.155,0.172,0.308,0.258,0.463c0.167,0.3,0.334,0.599,0.507,0.894
	c0.107,0.186,0.218,0.368,0.328,0.552c0.156,0.26,0.314,0.519,0.475,0.775c0.123,0.196,0.247,0.392,0.372,0.586
	c0.153,0.237,0.309,0.473,0.466,0.707c0.136,0.204,0.272,0.407,0.412,0.609c0.148,0.214,0.3,0.425,0.451,0.636
	c0.153,0.214,0.305,0.43,0.461,0.641c0.11,0.149,0.225,0.295,0.337,0.442c0.406,0.535,0.821,1.063,1.247,1.58
	c0.073,0.088,0.143,0.177,0.216,0.265c0.231,0.276,0.467,0.548,0.704,0.818c0.091,0.104,0.182,0.21,0.274,0.313
	c0.243,0.273,0.489,0.543,0.738,0.811c0.085,0.091,0.169,0.182,0.255,0.272c0.263,0.278,0.528,0.555,0.797,0.826
	c0.062,0.063,0.125,0.125,0.187,0.187c1.378,1.379,2.84,2.67,4.372,3.876l0.403-0.208c0.273-0.141,0.551-0.274,0.832-0.402
	l0.083-0.038c0.273-0.123,0.553-0.24,0.836-0.352l0.074-0.028c0.305-0.117,0.605-0.223,0.903-0.319s0.593-0.184,0.888-0.261
	l0.158-0.042c0.292-0.073,0.588-0.141,0.888-0.2l0.075-0.014c0.313-0.059,0.596-0.104,0.88-0.143L31.47,92.5
	c0.305-0.038,0.609-0.066,0.917-0.089l0.196-0.012c0.365-0.021,0.671-0.03,0.963-0.03c4.692,0,9.353,0.672,13.882,2
	c0.647,0.19,1.292,0.394,1.933,0.609c4.262,1.438,7.196,3.066,8.443,3.823c0.747-0.737,2.187-2.147,3.843-3.716
	c3.728-3.531,6.454-5.888,8.104-7.006l1.828-1.195c0.107-0.066,0.216-0.132,0.324-0.196l0.14-0.083
	c0.114-0.066,0.229-0.132,0.344-0.196l0.126-0.07c0.12-0.066,0.24-0.129,0.36-0.191l0.119-0.063
	c0.124-0.063,0.249-0.124,0.375-0.183l0.109-0.053c0.001-0.001,0.002-0.001,0.003-0.001l0.001-0.001
	c0.049-0.022,0.1-0.044,0.148-0.065c0.081-0.036,0.162-0.073,0.243-0.107l0.101-0.043c0.137-0.057,0.274-0.109,0.412-0.161
	l0.093-0.034c0.144-0.052,0.289-0.101,0.437-0.146l0.055-0.018c0.001,0,0.001,0,0.001,0h0.001c0.172-0.053,0.326-0.096,0.481-0.135
	l0.047-0.012c0.055-0.013,0.105-0.022,0.158-0.034c0.117-0.026,0.234-0.055,0.349-0.076c0.565-0.104,1.106-0.154,1.641-0.154
	c3.185,0,6.526,1.707,10.515,5.371c0.279,0.257,0.563,0.524,0.851,0.803l0.027,0.026c1.471-1.438,2.857-2.962,4.14-4.576
	c0.004-0.004,0.008-0.008,0.011-0.013c0.362-0.456,0.717-0.92,1.063-1.389c0.015-0.021,0.029-0.04,0.044-0.061
	c0.345-0.469,0.682-0.943,1.011-1.425c0.004-0.007,0.009-0.014,0.014-0.021c0.662-0.973,1.291-1.971,1.885-2.991
	c0.012-0.02,0.023-0.039,0.034-0.059c0.281-0.485,0.554-0.978,0.819-1.474c0.028-0.052,0.057-0.104,0.084-0.157
	c0.257-0.485,0.507-0.976,0.748-1.471c0.027-0.056,0.054-0.111,0.081-0.167c0.243-0.505,0.479-1.013,0.706-1.526
	c0.011-0.024,0.021-0.049,0.031-0.073c0.229-0.518,0.447-1.039,0.657-1.566c0.011-0.027,0.022-0.055,0.033-0.082
	c0.203-0.513,0.396-1.03,0.583-1.551c0.027-0.076,0.056-0.153,0.083-0.23c0.177-0.502,0.346-1.01,0.508-1.52
	c0.027-0.09,0.056-0.179,0.083-0.268c0.159-0.514,0.312-1.031,0.455-1.552c0.02-0.071,0.037-0.144,0.057-0.215
	c0.147-0.548,0.288-1.099,0.418-1.653c0.05-0.215,0.091-0.432,0.138-0.646L102.406,66.159z"/>
<path fill="#FFFFFF" d="M86.931,91.728c-0.019-0.018-0.038-0.036-0.057-0.053c-0.002-0.003-0.004-0.005-0.006-0.007
	c-3.564-3.273-6.581-4.865-9.222-4.865c-0.419,0-0.844,0.039-1.263,0.116c-0.079,0.015-0.15,0.029-0.22,0.044
	c-0.068,0.016-0.134,0.03-0.198,0.047v-0.001c-0.001,0.001-0.001,0.001-0.001,0.001l-0.047,0.011
	c-0.126,0.032-0.251,0.066-0.375,0.104l-0.06,0.019c-0.122,0.038-0.241,0.078-0.36,0.121l-0.078,0.028
	c-0.076,0.028-0.154,0.06-0.232,0.092c-0.037,0.015-0.073,0.027-0.109,0.043l-0.041,0.017l-0.02,0.009
	c-0.14,0.059-0.251,0.108-0.362,0.159l-0.073,0.035c-0.012,0.005-0.021,0.01-0.031,0.015c-0.103,0.049-0.2,0.097-0.297,0.146
	c-0.006,0.003-0.014,0.007-0.021,0.01l-0.105,0.056c-0.107,0.056-0.214,0.111-0.319,0.17l-0.116,0.064
	c-0.101,0.057-0.206,0.116-0.31,0.177l-0.104,0.062c-0.031,0.019-0.058,0.034-0.086,0.052c-0.086,0.051-0.164,0.098-0.238,0.144
	l-1.758,1.151c-1.542,1.044-4.261,3.398-7.86,6.809c-2.395,2.269-4.33,4.2-4.349,4.22l-0.562,0.561l-0.653-0.447
	c-0.022-0.015-1.686-1.133-4.597-2.433c-0.651-0.29-1.358-0.589-2.131-0.888c-0.604-0.234-1.244-0.467-1.917-0.694
	c-4.935-1.665-10.051-2.51-15.207-2.51c-0.254,0-0.526,0.009-0.853,0.027l-0.172,0.011c-0.273,0.02-0.544,0.045-0.811,0.078
	l-0.131,0.019c-0.249,0.034-0.499,0.074-0.746,0.121l-0.063,0.011c-0.298,0.058-0.56,0.118-0.82,0.185l-0.138,0.035
	c-0.526,0.14-1.052,0.309-1.563,0.505l-0.095,0.036c-0.032,0.013-0.063,0.027-0.096,0.04c-0.221,0.088-0.44,0.179-0.656,0.275
	l-0.069,0.032c-0.104,0.047-0.203,0.099-0.305,0.147c2.257,1.62,4.656,3.051,7.175,4.271c0.067,0.032,0.134,0.063,0.201,0.096
	c0.488,0.233,0.981,0.458,1.478,0.676c0.093,0.041,0.187,0.082,0.281,0.122c0.484,0.208,0.972,0.407,1.463,0.6
	c0.095,0.037,0.188,0.075,0.284,0.111c0.524,0.202,1.053,0.394,1.586,0.577c0.056,0.02,0.111,0.04,0.167,0.06
	c1.197,0.407,2.415,0.769,3.652,1.082c0.081,0.021,0.163,0.038,0.244,0.058c0.513,0.128,1.029,0.247,1.547,0.357
	c0.18,0.039,0.362,0.073,0.542,0.109c0.424,0.085,0.851,0.167,1.279,0.24c0.217,0.038,0.435,0.072,0.652,0.107
	c0.399,0.063,0.799,0.122,1.202,0.175c0.232,0.031,0.464,0.062,0.697,0.089c0.399,0.047,0.801,0.088,1.203,0.125
	c0.231,0.021,0.462,0.045,0.694,0.063c0.431,0.034,0.864,0.059,1.298,0.081c0.202,0.011,0.403,0.025,0.606,0.033
	c0.635,0.024,1.273,0.039,1.915,0.039c0.381,0,0.762-0.005,1.141-0.014c0.124-0.003,0.246-0.008,0.37-0.012
	c0.256-0.008,0.511-0.017,0.766-0.028c0.146-0.007,0.293-0.016,0.438-0.023c0.231-0.014,0.463-0.026,0.693-0.043
	c0.153-0.011,0.306-0.022,0.458-0.035c0.224-0.018,0.447-0.036,0.67-0.058c0.153-0.014,0.307-0.029,0.459-0.045
	c0.224-0.023,0.446-0.048,0.668-0.073c0.149-0.018,0.299-0.035,0.448-0.055c0.228-0.028,0.455-0.06,0.682-0.092
	c0.142-0.02,0.282-0.039,0.423-0.061c0.241-0.036,0.481-0.075,0.722-0.115c0.125-0.021,0.249-0.04,0.373-0.062
	c0.281-0.049,0.56-0.101,0.839-0.154c0.082-0.016,0.165-0.03,0.247-0.046c0.734-0.146,1.464-0.308,2.186-0.486
	c0.065-0.016,0.13-0.033,0.195-0.049c0.292-0.073,0.583-0.148,0.872-0.228c0.097-0.025,0.191-0.054,0.288-0.08
	c0.26-0.072,0.519-0.146,0.776-0.222c0.104-0.031,0.206-0.063,0.309-0.094c0.251-0.076,0.502-0.153,0.752-0.234
	c0.102-0.032,0.204-0.066,0.306-0.1c0.253-0.083,0.505-0.168,0.756-0.256c0.094-0.032,0.188-0.064,0.282-0.099
	c0.265-0.093,0.528-0.189,0.79-0.288c0.077-0.028,0.155-0.058,0.232-0.087c0.293-0.111,0.583-0.225,0.872-0.342
	c0.047-0.019,0.093-0.036,0.14-0.055c1.384-0.563,2.735-1.187,4.053-1.87c0.018-0.01,0.035-0.019,0.053-0.028
	c0.308-0.159,0.612-0.322,0.916-0.488c0.034-0.02,0.068-0.038,0.104-0.058c0.288-0.159,0.574-0.32,0.859-0.484
	c0.038-0.022,0.076-0.045,0.114-0.067c0.286-0.166,0.57-0.335,0.853-0.507c0.03-0.019,0.061-0.037,0.09-0.056
	c0.3-0.183,0.597-0.369,0.892-0.559c0.01-0.006,0.021-0.013,0.031-0.019c2.194-1.413,4.27-2.998,6.207-4.737
	c0.003-0.003,0.006-0.005,0.01-0.008c0.035-0.032,0.069-0.065,0.104-0.097C87.396,92.162,87.162,91.94,86.931,91.728"/>
<path fill="#FFFFFF" d="M102.862,57.977l-0.262-0.145c-7.778-4.27-16.398-9.002-22.182-12.351c-0.223-0.129-0.44-0.256-0.654-0.38
	c-0.428-0.25-0.838-0.49-1.229-0.721c-0.586-0.347-1.129-0.672-1.623-0.974c-3.09-1.887-6.324-2.844-9.614-2.844
	c-6.569,0-12.538,3.919-15.602,7.779c-0.169,0.213-0.331,0.426-0.482,0.638c-1.03,1.447-1.202,2.287-1.196,2.561
	c0.021,0.002,0.047,0.003,0.078,0.003c0.018,0,0.041-0.001,0.063-0.002c0.013,0,0.025-0.001,0.039-0.002
	c0.03-0.002,0.064-0.007,0.101-0.011c0.011-0.001,0.021-0.003,0.032-0.004c0.039-0.006,0.082-0.014,0.127-0.023
	c0.014-0.003,0.028-0.006,0.042-0.009c0.046-0.01,0.097-0.022,0.15-0.036c0.021-0.006,0.042-0.012,0.063-0.018
	c0.052-0.015,0.107-0.031,0.166-0.05c0.032-0.01,0.066-0.022,0.1-0.034c0.055-0.019,0.111-0.039,0.172-0.061
	c0.052-0.02,0.109-0.043,0.165-0.065c0.051-0.021,0.099-0.039,0.153-0.063c0.117-0.049,0.24-0.104,0.373-0.167
	c1.418-0.673,2.86-1.014,4.287-1.014c4.638,0,7.978,3.551,9.118,6.851c1.089,3.148,0.38,6.218-1.852,8.011
	c-2.815,2.262-6.459,4.675-14.102,4.675c-3.049,0-6.521-0.375-10.501-1.139c-0.35-0.067-0.707-0.139-1.065-0.212
	c-0.055-0.011-0.107-0.021-0.163-0.032c-2.044-0.422-4.218-0.941-6.531-1.561c-3.29-0.881-9.302-1.365-16.928-1.365
	c-1.046,0-2.1,0.012-3.155,0.03c-0.334,0.006-0.669,0.016-1.004,0.023c-0.511,0.013-1.022,0.028-1.532,0.044
	c-0.322,0.011-0.645,0.016-0.966,0.028c0.804,4.096,2.11,8.007,3.853,11.668l0.131-0.042c0.341-0.109,0.683-0.216,1.023-0.321
	c0.029-0.009,0.059-0.019,0.088-0.027l0.327-0.101c0.045-0.014,0.091-0.026,0.137-0.04c0.218-0.066,0.434-0.131,0.648-0.194
	c0.049-0.015,0.097-0.029,0.146-0.043c0.063-0.019,0.126-0.036,0.189-0.055c0.3-0.087,0.596-0.171,0.888-0.252
	c0.083-0.023,0.167-0.048,0.25-0.07c0.025-0.007,0.05-0.013,0.075-0.021c0.441-0.12,0.877-0.236,1.299-0.344
	c1.033-0.261,2.036-0.489,2.981-0.678c0.994-0.198,1.952-0.359,2.849-0.479c0.918-0.123,1.894-0.187,2.898-0.189l0.079-0.001
	c0,0,0,0,0.001,0h0.008c0.422,0,0.849,0.014,1.277,0.034c0.291,0.013,0.585,0.031,0.885,0.054c0.1,0.008,0.201,0.017,0.301,0.025
	c0.298,0.025,0.6,0.055,0.905,0.089c0.042,0.005,0.084,0.009,0.126,0.014c0.368,0.043,0.74,0.089,1.117,0.144
	c0.765,0.111,1.562,0.253,2.399,0.42c0.017,0.004,0.033,0.007,0.05,0.011c0.364,0.073,0.736,0.151,1.119,0.236
	c0.035,0.008,0.07,0.015,0.105,0.023c0.082,0.018,0.159,0.033,0.241,0.053c0.196,0.044,0.393,0.093,0.589,0.14
	c0.171,0.041,0.342,0.08,0.514,0.122c0.224,0.056,0.448,0.112,0.672,0.169c0.228,0.059,0.456,0.116,0.684,0.177
	c0.171,0.044,0.341,0.09,0.513,0.137c0.301,0.081,0.603,0.163,0.905,0.247c0.103,0.029,0.205,0.058,0.307,0.087
	c0.396,0.111,0.792,0.226,1.189,0.342c0.013,0.004,0.026,0.007,0.039,0.011c1.809,0.53,3.622,1.099,5.418,1.664
	c2.433,0.765,4.897,1.539,7.337,2.21c0.033,0.009,0.065,0.018,0.098,0.026c0.364,0.1,0.728,0.197,1.09,0.292
	c0.043,0.011,0.085,0.022,0.128,0.033c1.599,0.414,3.183,0.774,4.735,1.049c0.021,0.004,0.044,0.008,0.065,0.012
	c0.371,0.064,0.739,0.125,1.106,0.179c0.02,0.003,0.039,0.007,0.06,0.01c0.759,0.111,1.509,0.199,2.249,0.261
	c0.052,0.004,0.104,0.008,0.155,0.011c0.289,0.022,0.577,0.04,0.863,0.055c0.093,0.004,0.186,0.009,0.277,0.012
	c0.334,0.013,0.666,0.022,0.995,0.022c0.001,0,0.002,0,0.004,0h0.054c2.454-0.006,4.59-0.367,6.529-1.104
	c4.167-1.586,5.213-2.847,5.464-3.457c0.127-0.306,0.118-0.587-0.025-0.912c-0.188-0.427-0.602-0.899-1.227-1.405
	c-0.071-0.058-0.144-0.114-0.218-0.17c-0.216-0.166-0.46-0.338-0.725-0.513c-0.329-0.217-0.701-0.444-1.104-0.676
	c-0.293-0.168-0.595-0.334-0.9-0.497c-0.205-0.108-0.413-0.218-0.621-0.324c-0.209-0.107-0.42-0.215-0.63-0.319
	c-0.432-0.217-0.862-0.429-1.283-0.634l-0.591-0.29c-0.408-0.201-0.803-0.397-1.173-0.588c-0.188-0.098-0.37-0.193-0.545-0.288
	l-0.26-0.142c-0.173-0.096-0.338-0.189-0.492-0.282c-0.104-0.063-0.205-0.125-0.303-0.188l-0.035-0.022l-0.034-0.022
	c-0.095-0.062-0.186-0.122-0.271-0.182c-0.109-0.078-0.2-0.146-0.285-0.213l-0.037-0.03c-0.004-0.003-0.007-0.006-0.011-0.009
	c-0.044-0.035-0.089-0.071-0.132-0.108l-0.009-0.005l-0.093-0.087c-0.005-0.004-0.009-0.008-0.014-0.013l-0.021-0.02
	c-0.063-0.06-0.111-0.119-0.165-0.179c-0.037-0.041-0.081-0.082-0.114-0.123c-0.052-0.064-0.092-0.131-0.135-0.197
	c-0.024-0.038-0.057-0.076-0.078-0.115c-0.039-0.071-0.066-0.144-0.095-0.216c-0.014-0.035-0.034-0.069-0.046-0.104
	c-0.034-0.108-0.058-0.218-0.068-0.329c-0.009-0.091-0.01-0.179-0.003-0.266v-0.001c0.001,0,0-0.001,0-0.001l0.011-0.092
	c0-0.002,0-0.003,0.001-0.005l0.016-0.093c0.001-0.002,0.001-0.004,0.002-0.005v-0.003c0.009-0.038,0.021-0.076,0.032-0.114
	c0.006-0.018,0.009-0.035,0.015-0.053l0.021-0.054l0.013-0.033c0-0.001,0-0.002,0.001-0.002v-0.001l0,0
	c0.033-0.081,0.071-0.149,0.103-0.201l0.059-0.093c0.053-0.078,0.12-0.159,0.195-0.235c0.001-0.001,0.002-0.002,0.002-0.002
	c1.033-1.044,2.18-2.024,3.42-2.925c0.413-0.3,0.837-0.592,1.271-0.873c0.321-0.21,0.65-0.415,0.985-0.615
	c0.167-0.101,0.336-0.199,0.507-0.297c0.341-0.195,0.688-0.385,1.041-0.569c1.261-0.658,2.577-1.234,3.912-1.711
	c0.392-0.139,0.787-0.271,1.189-0.396c0.404-0.126,0.813-0.244,1.217-0.352c1.904-0.506,3.855-0.821,5.799-0.939
	c0.448-0.026,0.902-0.044,1.351-0.05c0.464-0.006,0.93,0,1.396,0.017c1.398,0.049,2.799,0.198,4.179,0.448
	c0.474,0.086,0.954,0.186,1.428,0.296c0.481,0.111,0.965,0.237,1.439,0.373c0.728,0.207,1.459,0.446,2.175,0.709
	c0.732,0.27,1.468,0.571,2.188,0.898c0.984,0.446,1.97,0.952,2.931,1.503c0.385,0.222,0.77,0.455,1.155,0.696l0.006,0.003
	l0.097,0.061c0.275,0.174,0.55,0.357,0.825,0.54c0.333-1.908,0.556-3.854,0.663-5.831L102.862,57.977z"/>
<g opacity="0.2">
	<g>
		<defs>
			<rect id="SVGID_1_" x="6.514" y="15.747" width="97.364" height="51.833"/>
		</defs>
		<clipPath id="SVGID_2_">
			<use xlink:href="#SVGID_1_"  overflow="visible"/>
		</clipPath>
		<path clip-path="url(#SVGID_2_)" fill="#FFFFFF" d="M103.695,51.492c-0.259-3.057-0.794-6.033-1.581-8.904
			c-0.303-1.105-0.644-2.193-1.02-3.265l-0.683-0.203c-0.449-0.133-0.905-0.274-1.359-0.413c-0.326-0.1-0.651-0.198-0.98-0.301
			c-0.38-0.119-0.766-0.243-1.149-0.365c-0.333-0.106-0.664-0.211-0.999-0.32c-0.387-0.125-0.778-0.256-1.168-0.386
			c-0.338-0.112-0.675-0.223-1.016-0.338c-0.397-0.135-0.8-0.275-1.201-0.414c-0.337-0.116-0.672-0.23-1.011-0.349
			c-0.417-0.146-0.839-0.298-1.259-0.449c-0.328-0.118-0.654-0.232-0.984-0.352c-0.445-0.162-0.896-0.329-1.344-0.495
			c-0.31-0.114-0.617-0.226-0.929-0.343c-0.502-0.188-1.008-0.382-1.514-0.576c-0.263-0.1-0.522-0.198-0.786-0.299
			c-0.771-0.297-1.546-0.601-2.324-0.911c-6.001-2.385-11.74-5.461-17.291-8.435c-2.842-1.523-5.781-3.098-8.708-4.554
			c-5.436-2.704-10.559-4.075-15.226-4.075c-0.287,0-0.566,0.013-0.847,0.023c-4.401,0.228-9.708,2.216-13.716,6.089
			c-3.835,4.048-5.804,9.407-6.03,13.852c-0.01,0.283-0.023,0.565-0.023,0.854c0,2.695,0.617,4.981,1.784,6.609
			c1.215,1.696,2.941,2.556,5.131,2.556c1.25,0,2.631-0.283,4.122-0.844c-2.074-1.977-3.036-5.195-2.331-8.281
			c0.84-3.672,3.777-5.974,7.858-6.158c0.104-0.004,0.213-0.007,0.318-0.007c5.39,0,10.624,6.053,10.769,12.455
			c0.054,2.396-0.606,5.842-4.059,8.659c-3.154,2.575-7.94,4.027-14.225,4.317c-0.194,0.01-0.398,0.014-0.607,0.014
			c-0.102,0-0.214-0.003-0.333-0.008c-0.015,0-0.029-0.001-0.044-0.002c-0.115-0.005-0.238-0.013-0.367-0.023
			c-0.022-0.002-0.043-0.003-0.066-0.005c-0.13-0.011-0.266-0.023-0.408-0.038c-0.025-0.002-0.05-0.005-0.075-0.008
			c-0.147-0.016-0.3-0.032-0.46-0.051c-0.017-0.002-0.035-0.004-0.053-0.007c-0.165-0.02-0.335-0.042-0.512-0.066
			c-0.008-0.001-0.015-0.002-0.023-0.003c-0.18-0.024-0.367-0.051-0.558-0.079c-0.024-0.003-0.049-0.007-0.073-0.011
			c-0.185-0.027-0.374-0.056-0.567-0.087c-0.036-0.005-0.071-0.011-0.106-0.017c-0.193-0.031-0.39-0.063-0.592-0.096
			c-0.032-0.005-0.064-0.011-0.096-0.016c-0.209-0.035-0.421-0.07-0.638-0.108c-0.021-0.004-0.043-0.008-0.065-0.012
			c-0.215-0.037-0.434-0.076-0.656-0.115c-0.018-0.003-0.035-0.006-0.054-0.01c-0.223-0.04-0.45-0.082-0.678-0.124
			c-0.042-0.007-0.083-0.015-0.124-0.023c-0.223-0.041-0.448-0.083-0.675-0.126c-0.043-0.008-0.087-0.017-0.131-0.025
			c-0.229-0.043-0.461-0.088-0.695-0.133c-0.036-0.007-0.072-0.014-0.108-0.021c-0.245-0.047-0.492-0.096-0.741-0.145
			c-0.008-0.001-0.016-0.003-0.023-0.004c-0.246-0.049-0.493-0.098-0.741-0.148c-0.033-0.006-0.066-0.013-0.099-0.02
			c-0.242-0.049-0.484-0.098-0.728-0.147c-0.043-0.009-0.086-0.018-0.129-0.027c-0.238-0.048-0.475-0.097-0.713-0.146
			c-0.048-0.01-0.096-0.02-0.144-0.03c-0.241-0.05-0.481-0.1-0.721-0.15c-0.033-0.007-0.066-0.014-0.099-0.021
			c-0.254-0.053-0.508-0.106-0.76-0.16c0,0-0.001,0-0.001,0c-0.241-0.051-0.481-0.102-0.72-0.153
			c-0.051-0.011-0.102-0.021-0.152-0.032c-0.228-0.049-0.453-0.097-0.677-0.146c-0.046-0.01-0.093-0.02-0.139-0.03
			c-0.22-0.048-0.438-0.095-0.653-0.142c-0.06-0.013-0.118-0.026-0.177-0.039c-0.208-0.045-0.414-0.09-0.618-0.135
			c-0.05-0.011-0.1-0.021-0.15-0.033c-0.199-0.043-0.396-0.087-0.59-0.13c-0.024-0.005-0.049-0.011-0.074-0.016
			c-0.209-0.046-0.415-0.092-0.617-0.137c-0.044-0.01-0.088-0.02-0.132-0.029c-0.186-0.042-0.367-0.082-0.546-0.122
			c-0.062-0.014-0.122-0.027-0.183-0.041c-0.167-0.038-0.332-0.074-0.492-0.11c-0.063-0.014-0.125-0.028-0.188-0.042
			c-0.131-0.029-0.26-0.059-0.386-0.087c-0.086-0.02-0.171-0.039-0.255-0.058c-0.123-0.028-0.243-0.055-0.36-0.082
			c-0.032-0.007-0.066-0.015-0.098-0.022c-0.143-0.032-0.279-0.063-0.412-0.094c-0.053-0.012-0.106-0.024-0.158-0.036
			c-0.11-0.025-0.216-0.049-0.319-0.073c-0.064-0.015-0.126-0.029-0.187-0.043C7.871,51.823,7.773,51.8,7.68,51.779
			c-0.432-0.1-0.767-0.177-0.988-0.229c-0.115,1.38-0.178,2.775-0.178,4.186c0,2.609,0.203,5.17,0.59,7.67l0.123-0.005
			c0.86-0.033,1.727-0.054,2.592-0.074c0.349-0.008,0.696-0.02,1.045-0.026c1.085-0.02,2.168-0.031,3.244-0.031
			c4.51,0,12.771,0.187,17.42,1.431c0.905,0.242,1.788,0.469,2.649,0.68c6.027,1.479,10.992,2.199,15.119,2.199
			c6.146,0,9.365-1.609,11.869-3.452c0.357-0.264,0.7-0.532,1.035-0.802c0.1-0.079,0.195-0.163,0.286-0.25
			c1.363-1.307,1.721-3.368,0.948-5.601c-0.924-2.673-3.604-5.55-7.304-5.55c-1.142,0-2.309,0.279-3.469,0.83
			c-0.207,0.098-0.403,0.183-0.594,0.261c-0.048,0.02-0.098,0.042-0.146,0.06c-0.676,0.263-1.256,0.396-1.76,0.406
			c-0.021,0-0.043,0.003-0.064,0.003h0h0c-0.001,0-0.001,0-0.002,0c-0.117,0-0.224-0.009-0.326-0.022
			c-0.035-0.004-0.067-0.01-0.1-0.015c-0.07-0.012-0.138-0.026-0.201-0.043c-0.029-0.008-0.059-0.014-0.087-0.022
			c-0.079-0.025-0.152-0.053-0.22-0.083c-0.029-0.014-0.056-0.028-0.083-0.042c-0.047-0.024-0.091-0.049-0.132-0.075
			c-0.021-0.013-0.043-0.026-0.063-0.04c-0.059-0.04-0.11-0.081-0.157-0.121c-0.011-0.009-0.021-0.019-0.031-0.028
			c-0.019-0.017-0.039-0.034-0.056-0.051c-0.02-0.019-0.04-0.042-0.06-0.064c-0.008-0.009-0.017-0.017-0.024-0.026
			c-0.033-0.038-0.065-0.08-0.098-0.125c-0.039-0.053-0.072-0.105-0.099-0.152c-0.004-0.006-0.005-0.014-0.009-0.021
			c-0.046-0.083-0.088-0.177-0.125-0.279c-0.01-0.029-0.02-0.058-0.029-0.087c-0.024-0.077-0.042-0.161-0.058-0.249
			c-0.008-0.045-0.016-0.089-0.021-0.136c-0.01-0.088-0.016-0.181-0.016-0.28c0-0.003,0-0.007,0-0.01
			c0-0.102,0.01-0.209,0.022-0.317c0.001-0.013,0.002-0.026,0.004-0.039c0.079-0.644,0.352-1.388,0.835-2.232
			c1.497-2.619,4.818-5.891,9.137-8.037c0.008-0.004,0.016-0.008,0.024-0.012c0.255-0.127,0.514-0.25,0.776-0.368
			c0.019-0.008,0.036-0.017,0.055-0.025c0.268-0.12,0.538-0.236,0.813-0.346c0.059-0.023,0.118-0.045,0.177-0.068
			c0.199-0.078,0.399-0.155,0.603-0.228c0.116-0.042,0.233-0.081,0.35-0.121c0.15-0.051,0.301-0.101,0.452-0.149
			c0.131-0.042,0.262-0.082,0.394-0.121c0.146-0.043,0.293-0.084,0.441-0.124c0.132-0.036,0.262-0.073,0.396-0.106
			c0.202-0.051,0.407-0.097,0.612-0.142c0.158-0.035,0.317-0.067,0.477-0.098c0.189-0.037,0.38-0.073,0.572-0.104
			c0.119-0.02,0.24-0.036,0.36-0.053c0.179-0.026,0.357-0.05,0.538-0.071c0.118-0.014,0.236-0.026,0.355-0.038
			c0.197-0.019,0.396-0.034,0.595-0.047c0.102-0.006,0.201-0.015,0.303-0.02c0.302-0.015,0.604-0.024,0.909-0.024
			c3.646,0,7.215,1.051,10.609,3.124c0.162,0.099,0.33,0.201,0.503,0.305c0.034,0.021,0.072,0.043,0.107,0.065
			c0.14,0.084,0.281,0.169,0.428,0.256c0.048,0.029,0.099,0.059,0.147,0.088c0.135,0.08,0.27,0.161,0.409,0.243
			c0.08,0.048,0.164,0.097,0.246,0.145c0.114,0.067,0.228,0.134,0.345,0.203c0.083,0.049,0.17,0.099,0.254,0.148
			c0.121,0.071,0.241,0.142,0.366,0.214c0.09,0.052,0.183,0.106,0.274,0.159c0.122,0.071,0.242,0.141,0.366,0.213
			c0.097,0.056,0.195,0.113,0.293,0.169c0.126,0.073,0.252,0.145,0.38,0.219c0.093,0.053,0.188,0.108,0.282,0.162
			c0.137,0.079,0.272,0.157,0.412,0.237c0.097,0.055,0.195,0.112,0.293,0.167c0.141,0.08,0.28,0.16,0.423,0.241
			c0.098,0.056,0.197,0.113,0.297,0.169c0.147,0.084,0.294,0.167,0.443,0.252c0.094,0.053,0.188,0.107,0.283,0.161
			c0.159,0.09,0.318,0.181,0.48,0.272c0.094,0.053,0.189,0.107,0.284,0.161c0.161,0.091,0.322,0.182,0.486,0.274
			c0.105,0.06,0.212,0.12,0.318,0.18c0.153,0.086,0.308,0.173,0.463,0.26c0.12,0.067,0.241,0.136,0.361,0.204
			c0.148,0.083,0.297,0.167,0.447,0.251c0.116,0.065,0.233,0.13,0.351,0.196c0.165,0.092,0.329,0.184,0.496,0.277
			c0.099,0.056,0.199,0.112,0.3,0.167c0.18,0.1,0.358,0.201,0.54,0.302c0.101,0.056,0.202,0.113,0.304,0.169
			c0.183,0.102,0.365,0.204,0.549,0.306c0.109,0.061,0.22,0.122,0.329,0.183c0.171,0.095,0.343,0.19,0.516,0.286
			c0.114,0.064,0.23,0.128,0.346,0.192c0.186,0.103,0.372,0.207,0.56,0.311c0.093,0.052,0.187,0.104,0.279,0.155
			c0.206,0.114,0.413,0.229,0.621,0.344c0.084,0.047,0.168,0.093,0.253,0.14c0.21,0.117,0.421,0.233,0.632,0.35
			c0.094,0.051,0.187,0.103,0.28,0.154c0.195,0.108,0.391,0.216,0.587,0.325c0.111,0.062,0.223,0.123,0.334,0.184
			c0.2,0.111,0.4,0.221,0.602,0.332c0.094,0.052,0.188,0.104,0.281,0.155c0.19,0.105,0.381,0.21,0.572,0.316
			c0.136,0.075,0.272,0.15,0.408,0.225c0.152,0.084,0.305,0.168,0.457,0.252c0.161,0.088,0.321,0.177,0.482,0.266
			c0.118,0.065,0.236,0.13,0.354,0.195c0.22,0.121,0.439,0.242,0.658,0.363c0.057,0.03,0.112,0.061,0.168,0.092
			c0.222,0.122,0.444,0.244,0.666,0.366c0.104,0.057,0.206,0.113,0.309,0.17c0.235,0.129,0.47,0.258,0.704,0.387
			c0.007,0.004,0.014,0.007,0.021,0.012c1.096,0.602,2.185,1.2,3.258,1.789l0.35,0.191c0.002-0.194,0.011-0.388,0.011-0.583
			C103.878,54.306,103.813,52.891,103.695,51.492"/>
	</g>
</g>
<path fill="#FFFFFF" d="M55.196,2.616c-28.995,0-52.5,23.505-52.5,52.5s23.505,52.5,52.5,52.5c28.995,0,52.5-23.505,52.5-52.5
	S84.19,2.616,55.196,2.616 M55.196,102.366c-26.096,0-47.25-21.154-47.25-47.25S29.1,7.866,55.196,7.866
	c26.095,0,47.25,21.154,47.25,47.25S81.291,102.366,55.196,102.366"/>
</svg>
