<?xml version="1.0" encoding="utf-8"?>
<!-- Generator: Adobe Illustrator 16.0.2, SVG Export Plug-In . SVG Version: 6.00 Build 0)  -->
<!DOCTYPE svg PUBLIC "-//W3C//DTD SVG 1.1//EN" "http://www.w3.org/Graphics/SVG/1.1/DTD/svg11.dtd">
<svg version="1.1" id="Layer_1" xmlns="http://www.w3.org/2000/svg" xmlns:xlink="http://www.w3.org/1999/xlink" x="0px" y="0px"
	 width="110px" height="110px" viewBox="0 0 110 110" enable-background="new 0 0 110 110" xml:space="preserve">
<path fill="#FFFFFF" d="M55.157,3.77c-28.995,0-52.5,23.505-52.5,52.5c0,22.019,13.561,40.859,32.781,48.656
	c2.071,0.839,4.202,1.559,6.394,2.134c4.257,1.113,8.72,1.711,13.325,1.711c28.994,0,52.501-23.506,52.501-52.501
	C107.658,27.275,84.151,3.77,55.157,3.77 M54.332,103.519c-4.63,0-9.889-0.677-14.151-1.917V52.583l1.047,1.886l1.398,8.36
	l1.637,12.111l1.086,8.319l1.395,11.333l0.611,4.11c0.114,0.949,0.944,1.022,1.9,1.022h17.658c0.955,0,1.762-0.021,1.874-0.97
	l0.59-4.573l1.342-11.118l0.983-8.201l1.43-12.03l0.982-8.28l1.341-11.313l0.678-6.229c0.063-0.535-0.104-1.484-0.463-1.888
	c-0.358-0.403-0.873-1.469-1.412-1.469H41.908c-0.025,0-1.728,0.289-1.728,0.293v-0.016c0-1.766,0.117-3.474-1.649-3.474h-0.105
	h-0.015c-1.766,0-4.625,1.708-4.625,3.474v65.274C17.802,91.731,7.082,75.324,7.082,56.27c0-26.096,21.567-47.249,47.664-47.249
	c26.095,0,47.042,21.153,47.042,47.249C101.787,82.363,80.426,103.519,54.332,103.519 M49.229,81.61l-0.985-9.591h19.678
	l-0.986,9.591H49.229z M65.592,92.267l-0.357,4.263H50.931l-0.358-4.263H65.592z M46.811,62.429l-0.986-9.591h24.516l-0.985,9.591
	H46.811z M44.482,42.181l-0.448-3.197h28.098l-0.447,3.197H44.482z"/>
</svg>
