<?xml version="1.0" encoding="utf-8"?>
<!-- Generator: Adobe Illustrator 16.0.2, SVG Export Plug-In . SVG Version: 6.00 Build 0)  -->
<!DOCTYPE svg PUBLIC "-//W3C//DTD SVG 1.1//EN" "http://www.w3.org/Graphics/SVG/1.1/DTD/svg11.dtd">
<svg version="1.1" id="Layer_1" xmlns="http://www.w3.org/2000/svg" xmlns:xlink="http://www.w3.org/1999/xlink" x="0px" y="0px"
	 width="110px" height="110px" viewBox="0 0 110 110" enable-background="new 0 0 110 110" xml:space="preserve">
<polygon fill="#2C647F" points="27.705,85.125 82.295,85.125 54.999,18.234 "/>
<path fill="#2C647F" d="M55,5.522C27.49,5.522,5.187,27.675,5.187,55c0,27.326,22.303,49.478,49.813,49.478
	c27.511,0,49.813-22.151,49.813-49.478C104.813,27.675,82.511,5.522,55,5.522 M55,99.531c-24.76,0-44.832-19.936-44.832-44.531
	c0-24.592,20.071-44.53,44.832-44.53c24.761,0,44.831,19.938,44.831,44.53C99.831,79.596,79.761,99.531,55,99.531"/>
</svg>
