<?xml version="1.0" encoding="utf-8"?>
<!-- Generator: Adobe Illustrator 16.0.2, SVG Export Plug-In . SVG Version: 6.00 Build 0)  -->
<!DOCTYPE svg PUBLIC "-//W3C//DTD SVG 1.1//EN" "http://www.w3.org/Graphics/SVG/1.1/DTD/svg11.dtd">
<svg version="1.1" id="Layer_1" xmlns="http://www.w3.org/2000/svg" xmlns:xlink="http://www.w3.org/1999/xlink" x="0px" y="0px"
	 width="110px" height="110px" viewBox="0 0 110 110" enable-background="new 0 0 110 110" xml:space="preserve">
<polygon fill="#FFFFFF" points="84.516,87.545 26.98,87.545 55.75,17.045 "/>
<path fill="#FFFFFF" d="M3.248,55.794c0,28.798,23.507,52.146,52.5,52.146c28.995,0,52.5-23.349,52.5-52.146
	c0-28.799-23.505-52.146-52.5-52.146C26.755,3.647,3.248,26.995,3.248,55.794 M8.498,55.794c0-25.92,21.155-46.932,47.25-46.932
	c26.097,0,47.25,21.012,47.25,46.932s-21.154,46.931-47.25,46.931C29.653,102.725,8.498,81.714,8.498,55.794"/>
</svg>
