<?xml version="1.0" encoding="utf-8"?>
<!-- Generator: Adobe Illustrator 16.0.2, SVG Export Plug-In . SVG Version: 6.00 Build 0)  -->
<!DOCTYPE svg PUBLIC "-//W3C//DTD SVG 1.1//EN" "http://www.w3.org/Graphics/SVG/1.1/DTD/svg11.dtd">
<svg version="1.1" id="Layer_1" xmlns="http://www.w3.org/2000/svg" xmlns:xlink="http://www.w3.org/1999/xlink" x="0px" y="0px"
	 width="110px" height="110px" viewBox="0 0 110 110" enable-background="new 0 0 110 110" xml:space="preserve">
<g opacity="0.2">
	<g>
		<defs>
			<rect id="SVGID_1_" x="9.304" y="20.731" width="92.486" height="40.524"/>
		</defs>
		<clipPath id="SVGID_2_">
			<use xlink:href="#SVGID_1_"  overflow="visible"/>
		</clipPath>
		<path clip-path="url(#SVGID_2_)" fill="#FFFFFF" d="M55.504,61.255c-4.108,0-6.03-1.841-8.689-4.391
			c-2.985-2.868-7.056-6.779-14.588-6.779c-7.514,0-11.423,3.751-14.564,6.767c-2.506,2.402-4.345,4.165-7.957,4.377
			c-0.266-2.019-0.401-4.07-0.401-6.113c0-10.02,3.149-19.549,9.11-27.565c0.211-0.2,0.424-0.403,0.641-0.611
			c3.033-2.911,6.467-6.208,13.171-6.208c6.719,0,10.301,3.441,13.179,6.207c2.782,2.67,5.177,4.969,10.098,4.969
			c4.929,0,7.322-2.303,10.091-4.969c3.036-2.913,6.471-6.207,13.176-6.207c6.718,0,10.146,3.297,13.173,6.207
			c0.318,0.306,0.629,0.602,0.937,0.888c5.829,7.96,8.91,17.394,8.91,27.289c0,2.044-0.136,4.098-0.402,6.118
			c-3.663-0.19-5.514-1.959-8.037-4.369c-2.982-2.868-7.05-6.779-14.581-6.779c-7.516,0-11.424,3.749-14.565,6.762
			C61.541,59.408,59.619,61.255,55.504,61.255"/>
	</g>
</g>
<g opacity="0.2">
	<g>
		<defs>
			<rect id="SVGID_3_" x="10.016" y="52.099" width="91.065" height="35.907"/>
		</defs>
		<clipPath id="SVGID_4_">
			<use xlink:href="#SVGID_3_"  overflow="visible"/>
		</clipPath>
		<path clip-path="url(#SVGID_4_)" fill="#FFFFFF" d="M55.504,88.006c-4.111,0-6.034-1.846-8.695-4.399
			c-2.991-2.87-7.066-6.781-14.583-6.781c-6.421,0-10.256,2.746-13.444,5.713c-0.094,0.088-0.187,0.174-0.279,0.261
			c-4.318-5.771-7.235-12.496-8.489-19.572c4.228-0.306,6.468-2.454,9.041-4.921c3.032-2.91,6.467-6.207,13.171-6.207
			c6.721,0,10.302,3.441,13.179,6.206c2.787,2.671,5.181,4.965,10.099,4.965c4.926,0,7.32-2.301,10.091-4.965
			c3.034-2.911,6.469-6.206,13.175-6.206c6.72,0,10.148,3.297,13.173,6.206c2.604,2.488,4.86,4.644,9.137,4.929
			c-1.259,7.094-4.188,13.833-8.526,19.615c-0.093-0.087-0.186-0.175-0.279-0.263c-3.206-2.992-7.06-5.761-13.503-5.761
			c-7.5,0-11.406,3.742-14.545,6.748l-0.025,0.024C61.542,86.157,59.622,88.006,55.504,88.006"/>
	</g>
</g>
<path fill="#FFFFFF" d="M55.548,101.358c-13.971,0-26.965-6.172-35.797-16.966c0.134-0.127,0.268-0.253,0.404-0.38
	c2.689-2.503,6.062-5.173,12.072-5.173c6.706,0,10.141,3.296,13.171,6.204c2.789,2.677,5.184,4.977,10.105,4.977
	c4.93,0,7.323-2.304,10.092-4.97l0.022-0.022c3.029-2.9,6.462-6.188,13.152-6.188c6.032,0,9.423,2.693,12.128,5.219
	c0.137,0.128,0.271,0.254,0.405,0.381C82.474,95.204,69.494,101.358,55.548,101.358"/>
<path fill="#0FAADA" d="M6.096,61.886c0.002,0.012,0.004,0.024,0.006,0.037l0,0C6.1,61.91,6.098,61.897,6.096,61.886"/>
<path fill="#FFFFFF" d="M55.548,2.616c-28.995,0-52.5,23.505-52.5,52.5c0,28.995,23.505,52.5,52.5,52.5s52.5-23.506,52.5-52.5
	C108.048,26.121,84.543,2.616,55.548,2.616 M55.548,7.866c15.631,0,29.487,7.592,38.088,19.288
	c5.758,7.83,9.162,17.498,9.162,27.962c0,2.427-0.185,4.812-0.537,7.141c-1.252,8.262-4.644,15.819-9.592,22.094
	c-8.652,10.972-22.064,18.015-37.121,18.015c-15.079,0-28.509-7.063-37.16-18.063c-4.927-6.264-8.303-13.804-9.553-22.043
	c-0.353-2.329-0.537-4.715-0.537-7.143c0-10.586,3.482-20.359,9.362-28.237C26.275,15.338,40.039,7.866,55.548,7.866"/>
</svg>
