<?xml version="1.0" encoding="utf-8"?>
<!-- Generator: Adobe Illustrator 16.0.2, SVG Export Plug-In . SVG Version: 6.00 Build 0)  -->
<!DOCTYPE svg PUBLIC "-//W3C//DTD SVG 1.1//EN" "http://www.w3.org/Graphics/SVG/1.1/DTD/svg11.dtd">
<svg version="1.1" id="Layer_1" xmlns="http://www.w3.org/2000/svg" xmlns:xlink="http://www.w3.org/1999/xlink" x="0px" y="0px"
	 width="110px" height="110px" viewBox="0 0 110 110" enable-background="new 0 0 110 110" xml:space="preserve">
<path fill="#FFFFFF" d="M45.962,43.124c-2.324,2.037-5.948,4.547-7.47,6.125v10.78c3.426-1.302,7.754-4.3,11.096-6.627
	c1.26-0.877,1.814-1.635,2.76-2.218c3.414-2.101,7.307-2.927,11.576-2.482l-8.578-10.009c-2.453-0.17-4.932,0.393-7.364,2.276
	C47.27,41.521,46.942,42.264,45.962,43.124"/>
<path fill="#FFFFFF" d="M53.263,52.999c-0.898,0.552-1.324,1.295-2.558,2.155c-3.625,2.525-8.788,5.777-12.213,7.081v10.168
	c4.568-1.025,9.952-4.404,14.146-6.971c1.435-0.878,2.14-1.636,3.217-2.218c5.489-2.966,12.128-3.401,19.367-1.285l-9.206-10.746
	C62.003,50.313,57.454,50.42,53.263,52.999"/>
<path fill="#FFFFFF" d="M42.818,31.094c-1.457,1.542-3.946,3.353-4.326,4.827v11.031c1.522-1.509,4.496-3.75,6.582-5.579
	c1.001-0.877,1.332-1.635,2.083-2.217c1.96-1.518,4.087-2.367,6.425-2.558l-7.628-8.898c-0.554,0.327-1.01,0.735-1.55,1.241
	C43.812,29.491,43.631,30.234,42.818,31.094"/>
<path fill="#FFFFFF" d="M38.492,33.53c0-1.323,2.338-2.863,3.59-4.188c0.83-0.877,1.227-1.635,1.849-2.217
	c0.35-0.327,0.549-0.615,0.915-0.88l-5.821-6.72c-0.257-0.301-0.091-0.418-0.481-0.291c-0.39,0.126-0.052,0.468-0.052,0.852V33.53z"
	/>
<path fill="#FFFFFF" d="M56.913,65.028c-1.022,0.552-1.597,1.295-3.002,2.155c-4.505,2.756-10.852,6.376-15.419,7.385v10.067
	c4.568-0.659,12.479-4.394,17.666-7.175c1.636-0.877,2.515-1.635,3.743-2.217c6.629-3.141,14.74-3.448,23.558-0.891
	c1.17,0.34,2.248,0.707,3.278,1.082l-8.8-10.285C72.3,62.896,64.165,61.11,56.913,65.028"/>
<path fill="#FFFFFF" d="M55.388,2.191c-28.995,0-52.5,23.505-52.5,52.5c0,22.875,14.632,42.33,35.046,49.524
	c0.814,0.287,1.638,0.555,2.471,0.803c4.748,1.411,9.776,2.173,14.982,2.173s10.235-0.762,14.983-2.173
	c4.699-1.397,9.124-3.433,13.171-6.009c1.136-0.724,2.243-1.488,3.318-2.295c2.928-2.196,5.618-4.693,8.027-7.442
	c0.529-0.604,1.044-1.221,1.546-1.85c0.083-0.104,0.169-0.206,0.251-0.312c7.018-8.926,11.204-20.185,11.204-32.42
	C107.889,25.696,84.383,2.191,55.388,2.191 M89.091,87.804c-6.766-1.364-14.891-1.74-22.328,1.284
	c-1.358,0.552-2.545,1.295-4.412,2.154c-4.458,2.053-10.278,4.582-15.791,6.156c4.93-2.466,10.037-6.037,14.1-7.907
	c1.906-0.878,3.125-1.636,4.558-2.218c7.244-2.945,16.063-3.398,25.608-1.332C90.264,86.577,89.686,87.198,89.091,87.804
	 M93.198,83.03l-3.332-3.899c-5.756-2.691-18.076-7.127-28.744-2.073c-1.166,0.553-1.911,1.296-3.514,2.155
	c-5.525,2.963-13.407,6.925-19.117,7.566v11.874C20.981,91.743,8.351,74.67,8.351,54.691c0-26.095,21.048-47.25,47.143-47.25
	c26.096,0,47.197,21.155,47.197,47.25C102.691,65.324,99.126,75.136,93.198,83.03"/>
</svg>
