<?xml version="1.0" encoding="utf-8"?>
<!-- Generator: Adobe Illustrator 16.0.2, SVG Export Plug-In . SVG Version: 6.00 Build 0)  -->
<!DOCTYPE svg PUBLIC "-//W3C//DTD SVG 1.1//EN" "http://www.w3.org/Graphics/SVG/1.1/DTD/svg11.dtd">
<svg version="1.1" xmlns="http://www.w3.org/2000/svg" xmlns:xlink="http://www.w3.org/1999/xlink" x="0px" y="0px" width="110px"
	 height="110px" viewBox="0 0 110 110" enable-background="new 0 0 110 110" xml:space="preserve">
<g id="Layer_1" display="none">
	<g display="inline">
		<path fill="#006989" d="M55,16.215c0.353,0,0.64-0.286,0.64-0.639v-3.755c0-0.353-0.287-0.639-0.64-0.639s-0.64,0.286-0.64,0.639
			v3.755C54.36,15.929,54.647,16.215,55,16.215"/>
		<path fill="#006989" d="M55,23.725c0.353,0,0.64-0.287,0.64-0.64v-3.754c0-0.354-0.287-0.64-0.64-0.64s-0.64,0.286-0.64,0.64
			v3.754C54.36,23.438,54.647,23.725,55,23.725"/>
		<path fill="#006989" d="M55,31.234c0.353,0,0.64-0.286,0.64-0.64V26.84c0-0.353-0.287-0.64-0.64-0.64s-0.64,0.287-0.64,0.64v3.754
			C54.36,30.948,54.647,31.234,55,31.234"/>
		<path fill="#006989" d="M55,93.785c-0.353,0-0.64,0.286-0.64,0.639v3.755c0,0.354,0.287,0.64,0.64,0.64s0.64-0.286,0.64-0.64
			v-3.755C55.64,94.071,55.353,93.785,55,93.785"/>
		<path fill="#006989" d="M55,78.766c-0.353,0-0.64,0.287-0.64,0.64v3.755c0,0.354,0.287,0.64,0.64,0.64s0.64-0.286,0.64-0.64
			v-3.755C55.64,79.053,55.353,78.766,55,78.766"/>
		<path fill="#006989" d="M55,86.275c-0.353,0-0.64,0.286-0.64,0.64v3.755c0,0.353,0.287,0.64,0.64,0.64s0.64-0.287,0.64-0.64
			v-3.755C55.64,86.562,55.353,86.275,55,86.275"/>
		<path fill="#006989" d="M31.98,32.885c0.125,0.125,0.289,0.188,0.452,0.188s0.328-0.063,0.452-0.188c0.25-0.25,0.25-0.654,0-0.904
			l-2.655-2.655c-0.25-0.25-0.654-0.25-0.904,0c-0.25,0.25-0.25,0.654,0,0.904L31.98,32.885z"/>
		<path fill="#006989" d="M26.671,27.575c0.125,0.125,0.288,0.188,0.452,0.188c0.164,0,0.327-0.062,0.452-0.188
			c0.25-0.249,0.25-0.654,0-0.904l-2.655-2.655c-0.25-0.25-0.654-0.25-0.904,0s-0.25,0.655,0,0.904L26.671,27.575z"/>
		<path fill="#006989" d="M37.291,38.195c0.125,0.125,0.288,0.187,0.452,0.187c0.164,0,0.328-0.062,0.452-0.187
			c0.25-0.25,0.25-0.655,0-0.904l-2.655-2.655c-0.25-0.25-0.654-0.25-0.904,0c-0.25,0.25-0.25,0.654,0,0.904L37.291,38.195z"/>
		<path fill="#006989" d="M42.601,43.505c0.125,0.125,0.289,0.188,0.452,0.188s0.327-0.062,0.452-0.188
			c0.25-0.25,0.25-0.655,0-0.904l-2.655-2.655c-0.25-0.25-0.654-0.25-0.904,0c-0.25,0.25-0.25,0.655,0,0.904L42.601,43.505z"/>
		<path fill="#006989" d="M83.329,82.425c-0.25-0.249-0.654-0.249-0.904,0c-0.25,0.25-0.25,0.655,0,0.904l2.655,2.655
			c0.125,0.125,0.288,0.188,0.452,0.188c0.163,0,0.327-0.063,0.452-0.188c0.25-0.249,0.25-0.654,0-0.904L83.329,82.425z"/>
		<path fill="#006989" d="M85.08,24.016l-2.655,2.655c-0.25,0.25-0.25,0.655,0,0.904c0.125,0.125,0.289,0.188,0.452,0.188
			c0.164,0,0.327-0.063,0.452-0.188l2.655-2.655c0.25-0.25,0.25-0.655,0-0.904S85.33,23.766,85.08,24.016"/>
		<path fill="#006989" d="M72.257,38.382c0.164,0,0.327-0.062,0.452-0.188l2.655-2.655c0.25-0.25,0.25-0.655,0-0.904
			c-0.25-0.25-0.654-0.25-0.904,0l-2.655,2.655c-0.249,0.25-0.249,0.655,0,0.904C71.93,38.32,72.093,38.382,72.257,38.382"/>
		<path fill="#006989" d="M77.566,33.072c0.164,0,0.328-0.063,0.452-0.188l2.656-2.655c0.249-0.25,0.249-0.655,0-0.904
			c-0.25-0.25-0.655-0.25-0.904,0l-2.656,2.655c-0.249,0.25-0.249,0.655,0,0.904C77.239,33.01,77.403,33.072,77.566,33.072"/>
		<path fill="#006989" d="M66.947,43.692c0.163,0,0.327-0.063,0.452-0.188l2.655-2.655c0.25-0.25,0.25-0.654,0-0.904
			c-0.25-0.25-0.654-0.25-0.904,0l-2.655,2.655c-0.25,0.25-0.25,0.654,0,0.904C66.62,43.63,66.783,43.692,66.947,43.692"/>
		<path fill="#006989" d="M26.671,82.425l-2.655,2.655c-0.25,0.25-0.25,0.655,0,0.904c0.125,0.125,0.289,0.188,0.452,0.188
			s0.327-0.063,0.452-0.188l2.655-2.655c0.25-0.249,0.25-0.654,0-0.904C27.325,82.176,26.92,82.176,26.671,82.425"/>
		<path fill="#006989" d="M71.896,55.64h3.754c0.354,0,0.64-0.286,0.64-0.64c0-0.353-0.286-0.64-0.64-0.64h-3.754
			c-0.354,0-0.64,0.287-0.64,0.64C71.257,55.354,71.543,55.64,71.896,55.64"/>
		<path fill="#006989" d="M26.84,54.36c-0.353,0-0.64,0.287-0.64,0.64c0,0.354,0.287,0.64,0.64,0.64h3.755
			c0.353,0,0.639-0.286,0.639-0.64c0-0.353-0.286-0.64-0.639-0.64H26.84z"/>
		<path fill="#006989" d="M15.576,54.36h-3.755c-0.353,0-0.639,0.287-0.639,0.64c0,0.354,0.286,0.64,0.639,0.64h3.755
			c0.353,0,0.639-0.286,0.639-0.64C16.215,54.647,15.928,54.36,15.576,54.36"/>
		<path fill="#006989" d="M23.085,54.36h-3.754c-0.354,0-0.64,0.287-0.64,0.64c0,0.354,0.286,0.64,0.64,0.64h3.754
			c0.353,0,0.64-0.286,0.64-0.64C23.725,54.647,23.438,54.36,23.085,54.36"/>
		<path fill="#006989" d="M34.349,55.64h3.755c0.353,0,0.64-0.286,0.64-0.64c0-0.353-0.287-0.64-0.64-0.64h-3.755
			c-0.353,0-0.64,0.287-0.64,0.64C33.709,55.354,33.996,55.64,34.349,55.64"/>
		<path fill="#006989" d="M90.67,54.36h-3.755c-0.354,0-0.64,0.287-0.64,0.64c0,0.354,0.286,0.64,0.64,0.64h3.755
			c0.353,0,0.64-0.286,0.64-0.64C91.31,54.647,91.022,54.36,90.67,54.36"/>
		<path fill="#006989" d="M98.179,54.36h-3.754c-0.354,0-0.64,0.287-0.64,0.64c0,0.354,0.286,0.64,0.64,0.64h3.754
			c0.354,0,0.64-0.286,0.64-0.64C98.818,54.647,98.532,54.36,98.179,54.36"/>
		<path fill="#006989" d="M78.766,55c0,0.354,0.287,0.64,0.64,0.64h3.756c0.353,0,0.639-0.286,0.639-0.64
			c0-0.353-0.286-0.64-0.639-0.64h-3.756C79.053,54.36,78.766,54.647,78.766,55"/>
		<path fill="#006989" d="M55,5C27.386,5,5,27.386,5,55s22.386,50,50,50s50-22.386,50-50S82.614,5,55,5 M55,100
			c-24.853,0-45-20.147-45-45s20.147-45,45-45c24.854,0,45,20.147,45,45S79.854,100,55,100"/>
		<polygon fill="#006989" points="28.859,81.913 52.504,77.273 54.702,48.046 55.022,48.046 57.222,77.273 80.869,81.913 
			54.866,33.204 		"/>
	</g>
</g>
<g id="Layer_2" display="none">
	<g display="inline">
		<path fill="#FFFFFF" d="M55,0C27.386,0,5,22.385,5,50c0,27.615,22.386,50,50,50s50-22.386,50-50C105,22.385,82.614,0,55,0 M55,95
			c-24.853,0-45-20.147-45-45C10,25.147,30.147,5,55,5c24.854,0,45,20.147,45,45C100,74.853,79.854,95,55,95"/>
		<path fill="#FFFFFF" d="M100.397,52.724l-0.25-0.137L100.397,52.724z"/>
		<path fill="#FFFFFF" d="M17.322,71.539c-0.164,0.045-0.328,0.092-0.493,0.139l-0.124,0.035c0.218-0.062,0.436-0.124,0.648-0.183
			C17.343,71.533,17.333,71.536,17.322,71.539"/>
		<path fill="#FFFFFF" d="M14.919,72.241L14.919,72.241c0.017-0.005,0.034-0.011,0.05-0.016L14.919,72.241z"/>
		<polyline fill="#FFFFFF" points="26.54,69.975 26.472,69.975 26.541,69.975 26.54,69.975 		"/>
		<path fill="#FFFFFF" d="M16.087,71.89c-0.197,0.058-0.397,0.118-0.596,0.178c0.216-0.064,0.433-0.13,0.646-0.192
			C16.121,71.88,16.104,71.885,16.087,71.89"/>
		<polygon fill="#FFFFFF" points="26.465,68.126 26.541,68.126 26.541,68.126 		"/>
		<line fill="#FFFFFF" x1="100.475" y1="59.751" x2="100.475" y2="59.751"/>
		<path fill="#FFFFFF" d="M100.366,59.68c0.036,0.024,0.071,0.046,0.107,0.07l0,0C100.438,59.726,100.402,59.704,100.366,59.68"/>
		<polyline fill="#FFFFFF" points="100.474,59.75 100.474,59.751 100.474,59.75 100.474,59.75 		"/>
		<path fill="#FFFFFF" d="M29.153,88.342c0.001,0,0.002,0.001,0.002,0.002c0.031-0.013,0.06-0.026,0.091-0.038
			C29.216,88.317,29.185,88.329,29.153,88.342"/>
		<path fill="#FFFFFF" d="M15.491,72.067c-0.174,0.053-0.346,0.104-0.522,0.158l0.252-0.077
			C15.312,72.121,15.401,72.095,15.491,72.067"/>
		<path fill="#FFFFFF" d="M16.705,71.713c-0.188,0.054-0.376,0.106-0.568,0.162c0.183-0.053,0.365-0.104,0.547-0.156L16.705,71.713z
			"/>
		<path fill="#FFFFFF" d="M27.789,86.916l-0.079,0.036L27.789,86.916c0.259-0.117,0.526-0.229,0.796-0.334l0.071-0.027l-0.071,0.027
			C28.314,86.688,28.048,86.799,27.789,86.916"/>
		<path fill="#FFFFFF" d="M100.475,59.751L100.475,59.751z"/>
		<path fill="#FFFFFF" d="M100.474,59.751C100.474,59.75,100.474,59.75,100.474,59.751L100.474,59.751z"/>
		<g opacity="0.2">
			<g>
				<defs>
					<rect id="SVGID_1_" x="14.034" y="55.328" width="86.231" height="36.276"/>
				</defs>
				<clipPath id="SVGID_2_">
					<use xlink:href="#SVGID_1_"  overflow="visible"/>
				</clipPath>
				<path clip-path="url(#SVGID_2_)" fill="#FFFFFF" d="M99.962,60.517c-0.17-0.116-0.34-0.223-0.51-0.334
					c-0.189-0.125-0.379-0.253-0.567-0.372l-0.075-0.047c-0.353-0.221-0.704-0.434-1.051-0.633
					c-0.864-0.496-1.751-0.951-2.635-1.353c-0.646-0.292-1.306-0.563-1.962-0.804c-0.64-0.235-1.293-0.449-1.942-0.635
					c-0.424-0.121-0.855-0.232-1.284-0.333c-0.422-0.098-0.851-0.187-1.272-0.263c-1.637-0.297-3.309-0.435-4.961-0.414
					c-0.398,0.005-0.803,0.021-1.201,0.045c-1.73,0.104-3.469,0.386-5.166,0.837c-0.359,0.096-0.726,0.201-1.087,0.313
					c-0.358,0.112-0.712,0.229-1.062,0.354c-1.191,0.425-2.368,0.939-3.494,1.528c-0.315,0.164-0.626,0.334-0.93,0.509
					c-0.152,0.087-0.304,0.175-0.453,0.265c-0.299,0.179-0.592,0.361-0.879,0.549c-0.732,0.477-1.433,0.983-2.098,1.515
					c-0.65,0.521-1.267,1.066-1.844,1.634l0.006,0.006c0.027,0.024,0.057,0.049,0.087,0.073c0.007,0.006,0.014,0.012,0.021,0.018
					l0.006,0.004c0.021,0.018,0.04,0.031,0.061,0.047c0.042,0.032,0.086,0.065,0.138,0.103c0.073,0.051,0.141,0.096,0.21,0.142
					l0.055,0.034c0.077,0.05,0.156,0.1,0.24,0.149c0.135,0.08,0.273,0.16,0.42,0.241l0.228,0.124
					c0.158,0.085,0.321,0.171,0.489,0.258c0.172,0.089,0.35,0.178,0.531,0.269l0,0c0.001,0.001,0.001,0.001,0.002,0.001
					c0.181,0.091,0.366,0.183,0.556,0.275l0.559,0.274c0.405,0.199,0.82,0.402,1.236,0.611c0.206,0.104,0.412,0.207,0.618,0.313
					c0.205,0.105,0.41,0.213,0.614,0.321c0.308,0.164,0.612,0.331,0.907,0.501c0.416,0.238,0.803,0.475,1.149,0.703
					c0.286,0.188,0.553,0.378,0.793,0.561c0.085,0.064,0.167,0.13,0.248,0.195c0.73,0.591,1.246,1.172,1.568,1.768
					c0.046,0.086,0.088,0.172,0.125,0.257c0.342,0.771,0.356,1.577,0.043,2.336c-0.08,0.195-0.182,0.388-0.305,0.578
					c-0.862,1.329-2.777,2.528-5.943,3.732c-2.056,0.782-4.299,1.164-6.859,1.17h-0.055h-0.002c-0.001,0-0.001,0-0.002,0
					c-0.324,0-0.656-0.009-0.993-0.021c-0.097-0.003-0.193-0.008-0.29-0.013c-0.266-0.013-0.535-0.029-0.808-0.05
					c-0.072-0.005-0.145-0.01-0.218-0.016c-0.34-0.027-0.683-0.059-1.031-0.099c-0.385-0.043-0.772-0.095-1.162-0.151
					c-0.029-0.004-0.057-0.009-0.086-0.013c-0.346-0.051-0.691-0.106-1.04-0.166c-0.043-0.008-0.086-0.016-0.129-0.023
					c-0.354-0.062-0.711-0.128-1.069-0.199c-0.018-0.003-0.035-0.007-0.054-0.01c-1.148-0.229-2.31-0.501-3.477-0.802
					c-0.05-0.014-0.1-0.026-0.15-0.039c-0.342-0.089-0.685-0.181-1.028-0.274c-0.044-0.012-0.088-0.023-0.132-0.035
					c-2.377-0.652-4.77-1.403-7.127-2.144c-1.678-0.527-3.384-1.063-5.081-1.562c-0.027-0.008-0.054-0.016-0.081-0.023
					C38.925,72.2,38.574,72.1,38.223,72c-0.112-0.031-0.225-0.063-0.338-0.095c-0.259-0.072-0.517-0.143-0.775-0.213
					c-0.181-0.049-0.362-0.098-0.542-0.145c-0.18-0.048-0.359-0.093-0.539-0.14c-0.239-0.061-0.479-0.122-0.717-0.181
					c-0.106-0.025-0.21-0.05-0.316-0.075c-1.806-0.433-3.582-0.779-5.296-0.98c-0.004-0.001-0.008-0.002-0.012-0.002
					c-0.309-0.036-0.614-0.065-0.919-0.092c-0.087-0.008-0.174-0.016-0.26-0.021c-0.256-0.021-0.511-0.036-0.764-0.049
					c-0.063-0.003-0.129-0.008-0.193-0.011c-0.339-0.015-0.678-0.022-1.012-0.022h-0.069c-0.88,0.003-1.731,0.059-2.528,0.165
					c-0.814,0.108-1.688,0.255-2.597,0.437c-0.87,0.174-1.795,0.384-2.75,0.626c-0.411,0.104-0.827,0.215-1.244,0.328
					c-0.213,0.059-0.431,0.121-0.648,0.183l-0.021,0.006c-0.182,0.052-0.364,0.104-0.547,0.156c-0.213,0.063-0.43,0.128-0.646,0.192
					c-0.09,0.027-0.18,0.054-0.27,0.081l-0.252,0.077c-0.016,0.005-0.033,0.011-0.05,0.016c-0.292,0.09-0.587,0.183-0.885,0.277
					c0.086,0.162,0.168,0.327,0.255,0.488c0.081,0.148,0.164,0.294,0.246,0.441c0.158,0.285,0.318,0.57,0.482,0.852
					c0.103,0.176,0.208,0.351,0.312,0.525c0.149,0.247,0.299,0.494,0.453,0.738c0.117,0.188,0.235,0.373,0.354,0.559
					c0.146,0.226,0.294,0.449,0.444,0.673c0.13,0.194,0.26,0.388,0.392,0.58c0.142,0.203,0.286,0.404,0.43,0.605
					c0.146,0.204,0.291,0.409,0.439,0.611c0.105,0.142,0.214,0.28,0.321,0.421c0.386,0.509,0.782,1.011,1.188,1.504
					c0.069,0.084,0.136,0.169,0.206,0.252c0.22,0.264,0.445,0.522,0.671,0.78c0.086,0.1,0.173,0.199,0.26,0.298
					c0.231,0.261,0.466,0.517,0.703,0.771c0.081,0.087,0.162,0.174,0.243,0.26c0.25,0.266,0.503,0.528,0.759,0.787
					c0.059,0.06,0.118,0.119,0.178,0.179c1.313,1.312,2.705,2.542,4.164,3.69l0.384-0.197c0.26-0.135,0.524-0.263,0.792-0.385
					l0.079-0.036c0.26-0.117,0.526-0.229,0.796-0.334l0.071-0.027c0.29-0.111,0.576-0.212,0.86-0.304s0.565-0.175,0.846-0.249
					l0.151-0.039c0.277-0.07,0.56-0.135,0.845-0.191l0.071-0.013c0.298-0.056,0.568-0.1,0.839-0.136l0.137-0.02
					c0.29-0.036,0.58-0.064,0.874-0.085l0.187-0.011c0.348-0.021,0.639-0.029,0.917-0.029c4.469,0,8.908,0.641,13.222,1.905
					c0.616,0.181,1.23,0.374,1.841,0.58c4.059,1.37,6.853,2.921,8.041,3.641c0.711-0.701,2.082-2.045,3.66-3.539
					c3.55-3.362,6.146-5.606,7.718-6.671l1.741-1.139c0.103-0.063,0.205-0.126,0.309-0.187l0.133-0.079
					c0.108-0.063,0.218-0.126,0.328-0.188l0.119-0.066c0.114-0.063,0.229-0.124,0.344-0.184l0.113-0.059
					c0.118-0.061,0.237-0.118,0.356-0.175l0.104-0.05c0.001,0,0.002-0.001,0.003-0.001l0.001-0.001
					c0.047-0.021,0.095-0.041,0.142-0.063c0.077-0.034,0.154-0.069,0.23-0.103l0.097-0.04c0.13-0.054,0.262-0.104,0.393-0.154
					l0.088-0.031c0.137-0.05,0.276-0.097,0.416-0.141l0.053-0.016c0-0.001,0-0.001,0.001-0.001h0.001
					c0.163-0.05,0.31-0.091,0.458-0.128l0.045-0.011c0.052-0.013,0.1-0.021,0.15-0.033c0.111-0.025,0.224-0.052,0.332-0.072
					c0.538-0.1,1.053-0.146,1.563-0.146c3.033,0,6.216,1.625,10.014,5.115c0.266,0.244,0.535,0.498,0.811,0.764l0.026,0.025
					c1.4-1.369,2.721-2.821,3.942-4.358c0.003-0.004,0.007-0.008,0.01-0.012c0.346-0.435,0.683-0.876,1.013-1.323
					c0.014-0.019,0.028-0.038,0.042-0.058c0.328-0.446,0.649-0.898,0.962-1.356c0.005-0.007,0.009-0.013,0.014-0.02
					c0.631-0.926,1.229-1.877,1.795-2.85c0.011-0.018,0.021-0.036,0.033-0.055c0.268-0.463,0.527-0.932,0.78-1.404
					c0.026-0.05,0.053-0.099,0.079-0.148c0.245-0.463,0.482-0.93,0.713-1.401c0.026-0.053,0.051-0.106,0.077-0.159
					c0.231-0.48,0.457-0.964,0.673-1.453c0.01-0.023,0.02-0.047,0.03-0.07c0.217-0.492,0.425-0.99,0.625-1.492
					c0.011-0.026,0.021-0.052,0.032-0.078c0.193-0.488,0.377-0.98,0.555-1.477c0.026-0.073,0.053-0.146,0.078-0.219
					c0.169-0.479,0.33-0.962,0.484-1.448c0.026-0.085,0.053-0.17,0.079-0.255c0.151-0.489,0.297-0.981,0.434-1.478
					c0.019-0.068,0.035-0.137,0.054-0.204c0.141-0.522,0.274-1.047,0.397-1.575c0.048-0.204,0.087-0.411,0.132-0.616L99.962,60.517z
					"/>
			</g>
		</g>
		<path fill="#FFFFFF" d="M85.224,84.867c-0.018-0.016-0.036-0.034-0.054-0.05c-0.002-0.002-0.004-0.004-0.006-0.006
			c-3.395-3.118-6.267-4.634-8.782-4.634c-0.398,0-0.804,0.037-1.202,0.11c-0.075,0.015-0.145,0.028-0.21,0.042
			c-0.064,0.015-0.127,0.028-0.188,0.044l0,0c-0.001,0-0.001,0-0.001,0l-0.045,0.011c-0.119,0.03-0.238,0.064-0.357,0.1
			l-0.057,0.018c-0.116,0.036-0.229,0.074-0.343,0.116l-0.074,0.026c-0.072,0.027-0.146,0.057-0.222,0.087
			c-0.035,0.014-0.069,0.026-0.104,0.041l-0.038,0.016l-0.02,0.009c-0.132,0.056-0.238,0.103-0.345,0.151l-0.069,0.033
			c-0.012,0.005-0.02,0.01-0.03,0.015c-0.098,0.047-0.19,0.092-0.282,0.139c-0.007,0.003-0.014,0.006-0.02,0.01l-0.102,0.052
			c-0.102,0.053-0.203,0.106-0.304,0.162l-0.11,0.062c-0.096,0.055-0.196,0.11-0.295,0.169l-0.099,0.058
			c-0.029,0.019-0.055,0.033-0.082,0.05c-0.081,0.049-0.155,0.093-0.227,0.137l-1.674,1.097c-1.469,0.994-4.058,3.236-7.486,6.484
			c-2.281,2.16-4.123,4-4.143,4.019l-0.533,0.533l-0.623-0.425c-0.021-0.015-1.605-1.079-4.378-2.316
			c-0.621-0.277-1.294-0.562-2.03-0.847c-0.575-0.223-1.184-0.444-1.826-0.66c-4.7-1.587-9.572-2.391-14.482-2.391
			c-0.242,0-0.501,0.008-0.812,0.026l-0.164,0.01c-0.26,0.018-0.518,0.042-0.772,0.075l-0.125,0.017
			c-0.237,0.032-0.475,0.07-0.71,0.115l-0.06,0.011c-0.284,0.055-0.534,0.112-0.781,0.175l-0.131,0.034
			c-0.501,0.133-1.001,0.294-1.488,0.48l-0.091,0.035c-0.031,0.012-0.06,0.025-0.091,0.038c-0.211,0.084-0.42,0.17-0.625,0.262
			l-0.065,0.03c-0.099,0.046-0.193,0.095-0.29,0.141c2.149,1.543,4.435,2.906,6.833,4.067c0.063,0.03,0.128,0.061,0.191,0.091
			c0.465,0.223,0.935,0.437,1.408,0.644c0.089,0.039,0.178,0.078,0.268,0.117c0.461,0.197,0.926,0.388,1.394,0.571
			c0.09,0.035,0.18,0.071,0.27,0.106c0.5,0.191,1.003,0.374,1.511,0.549c0.053,0.019,0.105,0.038,0.159,0.057
			c1.14,0.388,2.3,0.731,3.478,1.03c0.077,0.02,0.155,0.036,0.232,0.056c0.488,0.121,0.979,0.235,1.474,0.34
			c0.171,0.037,0.345,0.069,0.517,0.104c0.404,0.082,0.81,0.159,1.218,0.229c0.207,0.036,0.414,0.069,0.621,0.102
			c0.38,0.061,0.762,0.116,1.145,0.168c0.221,0.028,0.442,0.058,0.664,0.084c0.38,0.045,0.762,0.083,1.145,0.119
			c0.22,0.021,0.44,0.042,0.661,0.06c0.411,0.032,0.823,0.056,1.236,0.077c0.192,0.01,0.384,0.023,0.577,0.031
			c0.605,0.023,1.212,0.038,1.823,0.038c0.364,0,0.726-0.005,1.087-0.014c0.118-0.003,0.234-0.008,0.353-0.012
			c0.243-0.008,0.486-0.016,0.729-0.026c0.14-0.007,0.278-0.016,0.417-0.022c0.221-0.013,0.441-0.025,0.66-0.041
			c0.146-0.01,0.291-0.021,0.437-0.033c0.213-0.017,0.426-0.035,0.638-0.055c0.146-0.014,0.292-0.028,0.438-0.043
			c0.213-0.022,0.425-0.045,0.637-0.07c0.142-0.017,0.284-0.033,0.426-0.052c0.218-0.027,0.434-0.057,0.649-0.087
			c0.135-0.02,0.27-0.037,0.402-0.059c0.23-0.034,0.46-0.071,0.688-0.109c0.118-0.02,0.236-0.038,0.354-0.059
			c0.268-0.046,0.534-0.096,0.799-0.146c0.078-0.016,0.157-0.029,0.235-0.045c0.699-0.138,1.394-0.292,2.082-0.462
			c0.063-0.015,0.124-0.032,0.186-0.048c0.278-0.069,0.555-0.141,0.831-0.216c0.092-0.024,0.183-0.051,0.273-0.076
			c0.248-0.068,0.494-0.139,0.74-0.212c0.098-0.029,0.196-0.059,0.294-0.089c0.239-0.072,0.478-0.146,0.716-0.223
			c0.097-0.031,0.194-0.063,0.292-0.095c0.24-0.08,0.48-0.16,0.719-0.244c0.09-0.031,0.18-0.062,0.27-0.094
			c0.251-0.089,0.502-0.181,0.752-0.274c0.074-0.027,0.148-0.055,0.222-0.083c0.278-0.105,0.555-0.214,0.83-0.325
			c0.044-0.018,0.089-0.034,0.133-0.053c1.318-0.535,2.605-1.13,3.86-1.78c0.017-0.009,0.033-0.019,0.051-0.026
			c0.292-0.153,0.583-0.308,0.872-0.466c0.032-0.019,0.065-0.037,0.099-0.055c0.273-0.151,0.547-0.306,0.818-0.462
			c0.036-0.021,0.072-0.042,0.108-0.063c0.272-0.159,0.544-0.319,0.813-0.483c0.028-0.018,0.057-0.035,0.085-0.053
			c0.285-0.174,0.568-0.352,0.85-0.531c0.01-0.007,0.02-0.013,0.029-0.02c2.09-1.345,4.066-2.854,5.911-4.511
			c0.003-0.002,0.007-0.005,0.009-0.008c0.034-0.03,0.067-0.062,0.101-0.092C85.667,85.281,85.444,85.071,85.224,84.867"/>
		<g opacity="0.2">
			<g>
				<defs>
					<rect id="SVGID_3_" x="9.528" y="36.138" width="91.751" height="39.958"/>
				</defs>
				<clipPath id="SVGID_4_">
					<use xlink:href="#SVGID_3_"  overflow="visible"/>
				</clipPath>
				<path clip-path="url(#SVGID_4_)" fill="#FFFFFF" d="M100.397,52.724l-0.25-0.137c-7.407-4.066-15.617-8.574-21.125-11.764
					c-0.212-0.123-0.42-0.244-0.624-0.362c-0.407-0.237-0.798-0.466-1.17-0.687c-0.558-0.33-1.075-0.64-1.545-0.927
					c-2.943-1.797-6.023-2.708-9.157-2.708c-6.256,0-11.94,3.732-14.858,7.409c-0.161,0.203-0.315,0.405-0.459,0.607
					c-0.981,1.378-1.145,2.178-1.139,2.439c0.02,0.002,0.045,0.003,0.074,0.003c0.017,0,0.039-0.001,0.06-0.002
					c0.012,0,0.023-0.001,0.037-0.002c0.028-0.002,0.062-0.006,0.096-0.011c0.01-0.001,0.02-0.002,0.031-0.004
					c0.037-0.005,0.078-0.013,0.121-0.022c0.014-0.002,0.027-0.005,0.041-0.008c0.044-0.009,0.092-0.021,0.143-0.035
					c0.02-0.005,0.04-0.011,0.061-0.017c0.05-0.014,0.103-0.029,0.158-0.047c0.03-0.01,0.063-0.021,0.095-0.032
					c0.053-0.018,0.106-0.036,0.164-0.058c0.049-0.019,0.104-0.041,0.157-0.063c0.048-0.019,0.095-0.037,0.146-0.059
					c0.111-0.048,0.228-0.1,0.355-0.16c1.351-0.641,2.724-0.966,4.083-0.966c4.417,0,7.597,3.382,8.684,6.525
					c1.037,2.998,0.361,5.921-1.765,7.628c-2.681,2.154-6.15,4.453-13.43,4.453c-2.903,0-6.21-0.357-10-1.085
					c-0.334-0.063-0.673-0.132-1.014-0.202c-0.052-0.011-0.103-0.02-0.155-0.03c-1.947-0.402-4.018-0.896-6.221-1.486
					c-3.133-0.839-8.859-1.3-16.122-1.3c-0.996,0-2,0.01-3.004,0.028c-0.319,0.006-0.637,0.016-0.956,0.022
					c-0.487,0.012-0.974,0.026-1.459,0.042c-0.306,0.01-0.614,0.015-0.92,0.026c0.765,3.901,2.01,7.626,3.67,11.113l0.125-0.04
					c0.325-0.104,0.65-0.206,0.974-0.307c0.028-0.009,0.056-0.018,0.084-0.026l0.312-0.095c0.043-0.014,0.086-0.025,0.13-0.039
					c0.208-0.063,0.414-0.124,0.618-0.185c0.046-0.014,0.093-0.027,0.139-0.041c0.061-0.018,0.12-0.034,0.181-0.052
					c0.285-0.083,0.567-0.163,0.846-0.241c0.08-0.021,0.159-0.045,0.239-0.066c0.024-0.007,0.047-0.012,0.071-0.02
					c0.42-0.114,0.835-0.225,1.237-0.327c0.984-0.248,1.939-0.466,2.839-0.646c0.947-0.188,1.859-0.343,2.713-0.456
					c0.875-0.116,1.803-0.177,2.761-0.181h0.075c0,0,0,0,0.001,0h0.008c0.402,0,0.808,0.013,1.217,0.032
					c0.276,0.013,0.558,0.03,0.842,0.052c0.096,0.007,0.191,0.016,0.287,0.023c0.284,0.024,0.571,0.053,0.862,0.085
					c0.041,0.005,0.081,0.009,0.121,0.013c0.351,0.041,0.704,0.085,1.063,0.137c0.728,0.106,1.487,0.241,2.284,0.4
					c0.016,0.003,0.032,0.007,0.048,0.01c0.347,0.069,0.701,0.145,1.065,0.225c0.034,0.008,0.067,0.015,0.101,0.022
					c0.078,0.018,0.151,0.032,0.229,0.051c0.186,0.042,0.374,0.089,0.561,0.133c0.163,0.039,0.326,0.077,0.49,0.117
					c0.212,0.052,0.426,0.105,0.64,0.16c0.217,0.056,0.434,0.11,0.651,0.168c0.163,0.043,0.325,0.086,0.488,0.13
					c0.287,0.077,0.574,0.156,0.862,0.236c0.098,0.027,0.195,0.055,0.292,0.083c0.377,0.105,0.755,0.214,1.132,0.324
					c0.012,0.004,0.024,0.008,0.037,0.011c1.723,0.506,3.45,1.047,5.161,1.585c2.317,0.729,4.664,1.466,6.987,2.104
					c0.031,0.009,0.063,0.017,0.094,0.025c0.347,0.095,0.693,0.188,1.039,0.277c0.041,0.012,0.081,0.021,0.122,0.032
					c1.522,0.395,3.031,0.738,4.51,0.999c0.021,0.004,0.041,0.007,0.063,0.011c0.353,0.062,0.703,0.119,1.053,0.171
					c0.02,0.003,0.038,0.006,0.057,0.009c0.723,0.106,1.438,0.19,2.143,0.248c0.05,0.005,0.099,0.008,0.147,0.011
					c0.276,0.021,0.55,0.038,0.822,0.052c0.089,0.005,0.177,0.009,0.265,0.012c0.317,0.013,0.634,0.021,0.947,0.021
					c0.001,0,0.002,0,0.004,0h0.051c2.337-0.006,4.371-0.35,6.219-1.053c3.969-1.51,4.964-2.711,5.204-3.292
					c0.12-0.291,0.112-0.559-0.025-0.869c-0.179-0.406-0.572-0.855-1.168-1.338c-0.067-0.055-0.137-0.108-0.206-0.162
					c-0.207-0.157-0.438-0.322-0.69-0.487c-0.314-0.207-0.668-0.424-1.052-0.644c-0.28-0.161-0.567-0.318-0.857-0.474
					c-0.196-0.104-0.395-0.208-0.593-0.31c-0.199-0.103-0.399-0.204-0.6-0.304c-0.411-0.206-0.821-0.408-1.222-0.604l-0.563-0.276
					c-0.39-0.191-0.765-0.378-1.117-0.56c-0.179-0.092-0.353-0.183-0.52-0.273l-0.247-0.135c-0.165-0.092-0.321-0.181-0.469-0.27
					c-0.1-0.059-0.195-0.119-0.289-0.178l-0.032-0.021l-0.033-0.021c-0.09-0.059-0.177-0.116-0.258-0.174
					c-0.105-0.073-0.191-0.138-0.272-0.202l-0.035-0.029c-0.004-0.002-0.007-0.005-0.01-0.008c-0.042-0.034-0.085-0.068-0.126-0.104
					l-0.008-0.004l-0.089-0.083c-0.004-0.004-0.009-0.008-0.013-0.012l-0.021-0.02c-0.06-0.056-0.106-0.113-0.158-0.17
					c-0.035-0.039-0.076-0.077-0.107-0.117c-0.051-0.062-0.088-0.125-0.129-0.188c-0.023-0.037-0.054-0.073-0.074-0.11
					c-0.038-0.067-0.063-0.137-0.091-0.205c-0.013-0.033-0.032-0.066-0.043-0.1c-0.033-0.103-0.055-0.207-0.065-0.313
					c-0.009-0.086-0.009-0.171-0.003-0.254l0,0c0.001,0,0-0.001,0-0.001l0.01-0.088c0-0.001,0.001-0.003,0.001-0.005l0.016-0.088
					c0.001-0.001,0.001-0.003,0.001-0.005l0.001-0.003c0.008-0.036,0.02-0.072,0.03-0.108c0.005-0.017,0.009-0.033,0.015-0.05
					l0.02-0.052l0.012-0.031c0-0.001,0-0.001,0.001-0.003l0,0l0,0c0.031-0.077,0.067-0.143,0.098-0.191l0.056-0.089
					c0.05-0.073,0.114-0.151,0.187-0.224c0-0.001,0.001-0.002,0.002-0.003c0.983-0.993,2.075-1.927,3.256-2.784
					c0.394-0.286,0.797-0.563,1.21-0.832c0.307-0.2,0.62-0.396,0.938-0.586c0.159-0.095,0.32-0.189,0.482-0.282
					c0.325-0.186,0.656-0.367,0.992-0.542c1.201-0.628,2.454-1.176,3.726-1.63c0.373-0.133,0.75-0.259,1.133-0.378
					c0.385-0.12,0.775-0.232,1.159-0.334c1.813-0.481,3.672-0.783,5.522-0.895c0.427-0.026,0.859-0.042,1.286-0.048
					c0.441-0.005,0.885,0,1.329,0.016c1.332,0.047,2.666,0.188,3.98,0.427c0.451,0.082,0.908,0.177,1.359,0.282
					c0.458,0.106,0.919,0.226,1.371,0.355c0.692,0.198,1.39,0.426,2.071,0.676c0.697,0.256,1.398,0.544,2.084,0.854
					c0.938,0.426,1.876,0.907,2.791,1.433c0.366,0.211,0.733,0.433,1.1,0.662l0.006,0.004l0.093,0.058
					c0.262,0.165,0.523,0.34,0.785,0.514c0.317-1.817,0.529-3.67,0.632-5.553L100.397,52.724z"/>
			</g>
		</g>
		<g opacity="0.2">
			<g>
				<defs>
					<rect id="SVGID_5_" x="8.636" y="12.505" width="92.728" height="49.364"/>
				</defs>
				<clipPath id="SVGID_6_">
					<use xlink:href="#SVGID_5_"  overflow="visible"/>
				</clipPath>
				<path clip-path="url(#SVGID_6_)" fill="#FFFFFF" d="M101.189,46.548c-0.246-2.911-0.756-5.746-1.505-8.48
					c-0.288-1.052-0.613-2.089-0.971-3.109l-0.651-0.193c-0.427-0.127-0.861-0.261-1.293-0.393
					c-0.312-0.095-0.621-0.189-0.935-0.287c-0.362-0.113-0.729-0.231-1.095-0.348c-0.316-0.102-0.632-0.201-0.952-0.305
					c-0.368-0.12-0.74-0.244-1.112-0.368c-0.321-0.107-0.642-0.212-0.966-0.322c-0.38-0.128-0.763-0.262-1.146-0.394
					c-0.32-0.11-0.639-0.219-0.962-0.332c-0.396-0.14-0.799-0.284-1.199-0.427c-0.313-0.112-0.623-0.221-0.938-0.335
					c-0.424-0.154-0.853-0.313-1.28-0.471c-0.294-0.109-0.587-0.215-0.884-0.327c-0.478-0.179-0.96-0.364-1.441-0.548
					c-0.25-0.096-0.498-0.188-0.749-0.285c-0.733-0.283-1.472-0.572-2.214-0.867c-5.714-2.272-11.181-5.201-16.467-8.033
					c-2.707-1.451-5.507-2.95-8.294-4.337c-5.177-2.575-10.056-3.88-14.5-3.88c-0.273,0-0.539,0.013-0.806,0.022
					c-4.192,0.217-9.246,2.111-13.064,5.799c-3.652,3.855-5.527,8.959-5.743,13.192c-0.009,0.27-0.022,0.538-0.022,0.814
					c0,2.567,0.587,4.744,1.699,6.295c1.158,1.615,2.802,2.435,4.887,2.435c1.19,0,2.506-0.27,3.926-0.804
					c-1.975-1.883-2.892-4.948-2.22-7.887c0.8-3.498,3.598-5.69,7.484-5.865c0.099-0.004,0.203-0.007,0.303-0.007
					c5.133,0,10.118,5.765,10.256,11.862c0.051,2.281-0.577,5.563-3.866,8.247c-3.004,2.452-7.562,3.835-13.547,4.112
					c-0.185,0.009-0.379,0.013-0.578,0.013c-0.097,0-0.204-0.003-0.317-0.008c-0.014,0-0.027-0.001-0.042-0.001
					c-0.109-0.005-0.226-0.013-0.349-0.022c-0.021-0.001-0.042-0.003-0.063-0.004c-0.124-0.01-0.253-0.022-0.389-0.036
					c-0.023-0.002-0.047-0.005-0.071-0.007c-0.14-0.015-0.286-0.031-0.438-0.049c-0.016-0.002-0.033-0.004-0.05-0.006
					c-0.157-0.019-0.319-0.04-0.488-0.063c-0.007-0.001-0.014-0.002-0.021-0.003c-0.171-0.023-0.35-0.049-0.532-0.076
					c-0.023-0.003-0.046-0.006-0.069-0.01c-0.176-0.026-0.356-0.054-0.541-0.083c-0.034-0.005-0.067-0.011-0.102-0.016
					c-0.184-0.029-0.372-0.06-0.563-0.091c-0.03-0.005-0.061-0.01-0.091-0.015c-0.199-0.033-0.401-0.067-0.607-0.103
					c-0.021-0.003-0.042-0.007-0.062-0.011c-0.205-0.036-0.414-0.072-0.625-0.11c-0.017-0.003-0.034-0.006-0.051-0.009
					c-0.212-0.038-0.428-0.077-0.646-0.117c-0.039-0.007-0.078-0.015-0.118-0.022c-0.212-0.039-0.426-0.079-0.643-0.12
					c-0.042-0.008-0.083-0.016-0.125-0.023c-0.219-0.042-0.439-0.084-0.662-0.127c-0.034-0.007-0.068-0.014-0.103-0.02
					c-0.233-0.045-0.469-0.091-0.706-0.138c-0.007-0.001-0.015-0.003-0.022-0.004c-0.234-0.046-0.47-0.093-0.706-0.141
					c-0.032-0.006-0.063-0.013-0.094-0.019c-0.23-0.047-0.461-0.093-0.692-0.14c-0.042-0.009-0.082-0.017-0.123-0.025
					c-0.227-0.046-0.453-0.093-0.679-0.14c-0.045-0.009-0.091-0.019-0.137-0.028c-0.229-0.047-0.458-0.095-0.687-0.143
					c-0.032-0.007-0.063-0.013-0.094-0.02c-0.242-0.051-0.484-0.101-0.724-0.152c0,0-0.001,0-0.001,0
					c-0.23-0.049-0.458-0.097-0.686-0.146c-0.048-0.01-0.097-0.021-0.145-0.031c-0.217-0.046-0.432-0.093-0.645-0.138
					c-0.044-0.01-0.088-0.02-0.133-0.029c-0.209-0.045-0.417-0.09-0.622-0.135c-0.057-0.012-0.113-0.025-0.168-0.037
					c-0.198-0.043-0.395-0.086-0.588-0.129c-0.048-0.01-0.095-0.021-0.143-0.031c-0.189-0.042-0.377-0.083-0.562-0.124
					c-0.023-0.005-0.047-0.01-0.07-0.016c-0.199-0.044-0.395-0.087-0.588-0.13c-0.042-0.009-0.084-0.019-0.126-0.028
					c-0.177-0.04-0.35-0.078-0.52-0.116c-0.059-0.013-0.116-0.026-0.174-0.039c-0.159-0.036-0.315-0.071-0.468-0.105
					c-0.061-0.014-0.12-0.027-0.179-0.04c-0.125-0.028-0.248-0.056-0.367-0.083c-0.083-0.019-0.163-0.037-0.243-0.055
					c-0.117-0.026-0.231-0.052-0.343-0.078c-0.031-0.007-0.063-0.014-0.093-0.021c-0.136-0.031-0.266-0.061-0.392-0.09
					c-0.051-0.011-0.101-0.022-0.15-0.034c-0.104-0.023-0.206-0.047-0.304-0.069c-0.061-0.014-0.12-0.027-0.178-0.041
					c-0.096-0.022-0.189-0.043-0.277-0.063c-0.411-0.095-0.73-0.169-0.941-0.218c-0.11,1.314-0.17,2.643-0.17,3.986
					c0,2.485,0.193,4.924,0.563,7.305l0.117-0.004c0.819-0.031,1.644-0.051,2.468-0.071c0.333-0.008,0.663-0.019,0.995-0.024
					c1.034-0.019,2.065-0.03,3.09-0.03c4.295,0,12.163,0.178,16.591,1.362c0.862,0.23,1.703,0.446,2.523,0.647
					c5.74,1.408,10.469,2.095,14.398,2.095c5.853,0,8.92-1.532,11.305-3.288c0.34-0.251,0.667-0.507,0.985-0.763
					c0.095-0.076,0.187-0.156,0.272-0.238c1.298-1.244,1.639-3.208,0.903-5.334c-0.88-2.546-3.433-5.286-6.956-5.286
					c-1.088,0-2.2,0.266-3.305,0.791c-0.197,0.093-0.383,0.174-0.565,0.249c-0.046,0.019-0.094,0.04-0.139,0.057
					c-0.645,0.251-1.197,0.377-1.677,0.387c-0.02,0-0.041,0.002-0.061,0.002l0,0h-0.001c0,0-0.001,0-0.002,0
					c-0.111,0-0.213-0.009-0.311-0.021c-0.033-0.004-0.063-0.009-0.095-0.014c-0.067-0.011-0.131-0.025-0.191-0.042
					c-0.028-0.008-0.056-0.014-0.083-0.022c-0.076-0.023-0.145-0.05-0.21-0.079c-0.028-0.013-0.053-0.026-0.08-0.04
					c-0.045-0.023-0.087-0.046-0.126-0.071c-0.02-0.013-0.041-0.024-0.06-0.038c-0.056-0.038-0.105-0.077-0.15-0.115
					c-0.01-0.009-0.02-0.018-0.029-0.027c-0.018-0.016-0.037-0.032-0.053-0.048c-0.019-0.019-0.038-0.041-0.057-0.062
					c-0.007-0.008-0.016-0.017-0.023-0.025c-0.032-0.036-0.063-0.076-0.094-0.119c-0.037-0.051-0.069-0.1-0.094-0.145
					c-0.003-0.006-0.005-0.014-0.009-0.02c-0.044-0.079-0.084-0.168-0.119-0.266c-0.01-0.027-0.019-0.055-0.027-0.083
					c-0.022-0.074-0.041-0.153-0.055-0.237c-0.008-0.042-0.015-0.085-0.021-0.129c-0.009-0.084-0.015-0.172-0.015-0.267
					c0-0.003,0-0.006,0-0.01c0-0.097,0.01-0.199,0.021-0.302c0.001-0.013,0.002-0.024,0.004-0.037
					c0.075-0.613,0.335-1.322,0.795-2.126c1.426-2.495,4.588-5.611,8.702-7.654c0.008-0.004,0.016-0.007,0.023-0.011
					c0.242-0.121,0.489-0.238,0.739-0.351c0.018-0.008,0.034-0.016,0.052-0.024c0.256-0.114,0.513-0.225,0.773-0.33
					c0.057-0.022,0.113-0.043,0.169-0.065c0.189-0.075,0.381-0.147,0.574-0.217c0.11-0.04,0.222-0.078,0.333-0.116
					c0.143-0.049,0.285-0.096,0.43-0.142c0.125-0.04,0.249-0.078,0.375-0.116c0.14-0.041,0.279-0.08,0.42-0.118
					c0.126-0.034,0.251-0.069,0.377-0.101c0.193-0.048,0.389-0.093,0.584-0.135c0.15-0.033,0.302-0.063,0.454-0.093
					c0.181-0.035,0.361-0.069,0.545-0.099c0.113-0.019,0.229-0.035,0.343-0.051c0.171-0.024,0.341-0.047,0.512-0.067
					c0.113-0.013,0.227-0.025,0.34-0.036c0.188-0.018,0.377-0.033,0.566-0.045c0.096-0.006,0.191-0.014,0.288-0.019
					c0.287-0.014,0.575-0.023,0.865-0.023c3.473,0,6.872,1.001,10.104,2.976c0.154,0.094,0.313,0.191,0.479,0.291
					c0.033,0.02,0.069,0.042,0.103,0.062c0.134,0.081,0.268,0.161,0.407,0.244c0.046,0.027,0.095,0.056,0.141,0.084
					c0.129,0.076,0.257,0.153,0.391,0.231c0.076,0.045,0.156,0.092,0.233,0.138c0.109,0.064,0.218,0.128,0.329,0.194
					c0.079,0.046,0.161,0.094,0.242,0.141c0.115,0.067,0.229,0.135,0.348,0.204c0.086,0.05,0.175,0.102,0.262,0.152
					c0.115,0.067,0.23,0.135,0.349,0.203c0.092,0.053,0.187,0.107,0.279,0.161c0.12,0.069,0.239,0.138,0.362,0.209
					c0.088,0.051,0.179,0.103,0.268,0.154c0.13,0.075,0.26,0.149,0.393,0.226c0.093,0.052,0.187,0.106,0.279,0.16
					c0.134,0.076,0.267,0.152,0.402,0.229c0.094,0.053,0.188,0.108,0.283,0.162c0.14,0.08,0.28,0.159,0.423,0.24
					c0.089,0.05,0.18,0.102,0.269,0.153c0.152,0.086,0.304,0.172,0.458,0.259c0.09,0.051,0.181,0.102,0.271,0.153
					c0.154,0.086,0.308,0.173,0.463,0.261c0.101,0.057,0.202,0.114,0.304,0.171c0.146,0.082,0.293,0.165,0.44,0.248
					c0.114,0.064,0.229,0.129,0.345,0.194c0.142,0.08,0.283,0.159,0.427,0.239c0.109,0.062,0.222,0.124,0.333,0.187
					c0.157,0.088,0.313,0.176,0.472,0.265c0.096,0.053,0.19,0.106,0.286,0.16c0.171,0.095,0.342,0.191,0.514,0.287
					c0.097,0.053,0.193,0.107,0.29,0.161c0.174,0.097,0.348,0.194,0.523,0.292c0.104,0.058,0.208,0.116,0.313,0.175
					c0.163,0.09,0.327,0.181,0.491,0.272c0.109,0.061,0.219,0.122,0.329,0.183c0.177,0.098,0.354,0.197,0.533,0.296
					c0.088,0.049,0.178,0.099,0.266,0.147c0.197,0.109,0.394,0.218,0.592,0.328c0.08,0.044,0.16,0.089,0.24,0.134
					c0.201,0.11,0.401,0.222,0.603,0.333c0.089,0.049,0.178,0.098,0.267,0.147c0.187,0.103,0.372,0.206,0.56,0.309
					c0.105,0.058,0.212,0.117,0.317,0.175c0.19,0.105,0.382,0.21,0.573,0.316c0.089,0.049,0.179,0.098,0.268,0.147
					c0.182,0.1,0.363,0.2,0.545,0.301c0.13,0.071,0.26,0.143,0.39,0.214c0.145,0.08,0.29,0.16,0.435,0.24
					c0.153,0.084,0.307,0.168,0.46,0.253c0.112,0.062,0.225,0.124,0.337,0.186c0.21,0.115,0.419,0.23,0.628,0.345
					c0.053,0.029,0.106,0.059,0.159,0.087c0.212,0.117,0.423,0.233,0.635,0.349c0.098,0.054,0.195,0.108,0.294,0.162
					c0.224,0.123,0.447,0.246,0.671,0.368c0.006,0.004,0.013,0.007,0.02,0.011c1.043,0.573,2.08,1.143,3.103,1.704l0.332,0.183
					c0.003-0.185,0.011-0.369,0.011-0.555C101.364,49.228,101.303,47.881,101.189,46.548"/>
			</g>
		</g>
	</g>
</g>
<g id="Layer_3" display="none">
	<g display="inline" opacity="0.2">
		<g>
			<defs>
				<rect id="SVGID_7_" x="10.958" y="22.252" width="88.082" height="38.594"/>
			</defs>
			<clipPath id="SVGID_8_">
				<use xlink:href="#SVGID_7_"  overflow="visible"/>
			</clipPath>
			<path clip-path="url(#SVGID_8_)" fill="#0FAADA" d="M54.958,60.847c-3.913,0-5.743-1.754-8.276-4.181
				c-2.843-2.732-6.72-6.458-13.893-6.458c-7.157,0-10.879,3.573-13.871,6.444c-2.386,2.289-4.138,3.968-7.577,4.169
				c-0.253-1.922-0.382-3.876-0.382-5.822c0-9.542,3-18.618,8.676-26.252c0.202-0.19,0.404-0.384,0.611-0.582
				c2.888-2.772,6.159-5.912,12.543-5.912c6.399,0,9.81,3.277,12.551,5.912c2.649,2.543,4.931,4.732,9.617,4.732
				c4.695,0,6.973-2.193,9.611-4.733c2.892-2.773,6.163-5.911,12.548-5.911c6.398,0,9.664,3.141,12.546,5.911
				c0.304,0.291,0.599,0.573,0.892,0.845c5.552,7.582,8.486,16.566,8.486,25.989c0,1.948-0.129,3.904-0.383,5.827
				c-3.489-0.182-5.252-1.865-7.654-4.161c-2.841-2.731-6.714-6.457-13.887-6.457c-7.158,0-10.881,3.571-13.872,6.44
				C60.707,59.088,58.878,60.847,54.958,60.847"/>
		</g>
	</g>
	<g display="inline" opacity="0.2">
		<g>
			<defs>
				<rect id="SVGID_9_" x="11.636" y="52.126" width="86.729" height="34.197"/>
			</defs>
			<clipPath id="SVGID_10_">
				<use xlink:href="#SVGID_9_"  overflow="visible"/>
			</clipPath>
			<path clip-path="url(#SVGID_10_)" fill="#0FAADA" d="M54.959,86.323c-3.916,0-5.747-1.757-8.281-4.189
				c-2.849-2.733-6.73-6.458-13.888-6.458c-6.115,0-9.768,2.615-12.804,5.44c-0.09,0.084-0.178,0.166-0.266,0.248
				c-4.113-5.496-6.891-11.9-8.085-18.64c4.026-0.291,6.16-2.337,8.61-4.687c2.887-2.771,6.159-5.911,12.544-5.911
				c6.401,0,9.811,3.277,12.551,5.91c2.654,2.544,4.934,4.729,9.618,4.729c4.692,0,6.971-2.191,9.611-4.729
				c2.89-2.772,6.161-5.91,12.548-5.91c6.399,0,9.664,3.14,12.545,5.91c2.48,2.369,4.629,4.423,8.701,4.693
				c-1.198,6.757-3.987,13.175-8.119,18.682c-0.089-0.083-0.177-0.166-0.267-0.25c-3.053-2.85-6.724-5.486-12.86-5.486
				c-7.143,0-10.863,3.563-13.853,6.427l-0.023,0.022C60.708,84.563,58.881,86.323,54.959,86.323"/>
		</g>
	</g>
	<path display="inline" fill="#0FAADA" d="M55,99.041c-13.305,0-25.681-5.879-34.092-16.159c0.127-0.12,0.255-0.24,0.385-0.361
		c2.561-2.383,5.773-4.927,11.497-4.927c6.386,0,9.658,3.14,12.544,5.909c2.656,2.55,4.937,4.739,9.625,4.739
		c4.695,0,6.974-2.193,9.611-4.732l0.021-0.021c2.885-2.763,6.153-5.895,12.525-5.895c5.745,0,8.975,2.565,11.551,4.971
		c0.131,0.121,0.259,0.242,0.386,0.363C80.644,93.179,68.282,99.041,55,99.041"/>
	<path display="inline" fill="#0FAADA" d="M7.902,61.447c0.002,0.012,0.004,0.023,0.007,0.035l0,0
		C7.907,61.471,7.905,61.459,7.902,61.447"/>
	<path display="inline" fill="#0FAADA" d="M55,5C27.386,5,5,27.386,5,55c0,27.613,22.386,50,50,50s50-22.387,50-50
		C105,27.386,82.614,5,55,5 M55,10c14.887,0,28.083,7.23,36.274,18.369C96.758,35.827,100,45.034,100,55
		c0,2.312-0.176,4.583-0.512,6.801c-1.192,7.868-4.423,15.066-9.135,21.042C82.113,93.292,69.34,100,55,100
		c-14.361,0-27.151-6.729-35.391-17.203c-4.692-5.966-7.908-13.147-9.098-20.994C10.175,59.584,10,57.313,10,55
		c0-10.083,3.316-19.39,8.917-26.893C27.121,17.117,40.229,10,55,10"/>
</g>
<g id="Layer_4" display="none">
	<path display="inline" fill="#0FAADA" d="M7.902,61.447c0.002,0.012,0.004,0.023,0.006,0.036h0l0-0.001
		C7.907,61.471,7.905,61.459,7.902,61.447"/>
	<g display="inline" opacity="0.4">
		<g>
			<defs>
				<rect id="SVGID_11_" x="10.96" y="22.253" width="88.08" height="38.594"/>
			</defs>
			<clipPath id="SVGID_12_">
				<use xlink:href="#SVGID_11_"  overflow="visible"/>
			</clipPath>
			<path clip-path="url(#SVGID_12_)" fill="#0FAADA" d="M89.663,28.165c-2.882-2.771-6.147-5.912-12.545-5.912
				c-6.386,0-9.657,3.138-12.549,5.911c-2.638,2.54-4.916,4.732-9.611,4.732c-4.687,0-6.968-2.189-9.617-4.732
				c-2.741-2.634-6.152-5.912-12.552-5.912c-6.384,0-9.655,3.14-12.543,5.912c-0.207,0.198-0.409,0.392-0.611,0.582
				C13.959,36.381,10.959,45.457,10.959,55c0,1.946,0.128,3.9,0.382,5.822c3.439-0.201,5.19-1.88,7.577-4.168
				c2.991-2.872,6.714-6.445,13.871-6.445c7.173,0,11.05,3.726,13.893,6.457c2.533,2.428,4.363,4.183,8.275,4.183
				c3.92,0,5.749-1.759,8.287-4.199c2.991-2.869,6.715-6.44,13.872-6.44c7.173,0,11.047,3.726,13.886,6.457
				c2.403,2.296,4.167,3.979,7.655,4.161c0.254-1.923,0.383-3.879,0.383-5.827c0-9.423-2.935-18.408-8.486-25.989
				C90.262,28.738,89.967,28.456,89.663,28.165"/>
		</g>
	</g>
	<g display="inline" opacity="0.4">
		<g>
			<defs>
				<rect id="SVGID_13_" x="11.635" y="52.127" width="86.729" height="34.196"/>
			</defs>
			<clipPath id="SVGID_14_">
				<use xlink:href="#SVGID_13_"  overflow="visible"/>
			</clipPath>
			<path clip-path="url(#SVGID_14_)" fill="#0FAADA" d="M77.117,52.127c-6.387,0-9.658,3.138-12.549,5.91
				c-2.639,2.537-4.918,4.729-9.61,4.729c-4.684,0-6.964-2.186-9.617-4.729c-2.74-2.633-6.151-5.91-12.552-5.91
				c-6.386,0-9.656,3.14-12.544,5.911c-2.451,2.35-4.584,4.396-8.61,4.687c1.194,6.739,3.972,13.144,8.085,18.641
				c0.088-0.083,0.176-0.166,0.266-0.249c3.036-2.826,6.689-5.44,12.804-5.44c7.158,0,11.039,3.725,13.888,6.457
				c2.534,2.434,4.366,4.19,8.281,4.19c3.921,0,5.75-1.76,8.282-4.197l0.023-0.023c2.99-2.863,6.711-6.427,13.853-6.427
				c6.137,0,9.808,2.637,12.86,5.486c0.09,0.084,0.179,0.167,0.267,0.25c4.132-5.507,6.922-11.925,8.12-18.682
				c-4.073-0.271-6.221-2.323-8.702-4.693C86.782,55.267,83.517,52.127,77.117,52.127 M64.583,66.905l-9.313,9.313
				c-0.149,0.149-0.391,0.149-0.54,0l-9.313-9.313c-0.149-0.148-0.149-0.39,0-0.539l2.53-2.529c0.149-0.148,0.391-0.148,0.54,0
				L55,70.351l6.515-6.514c0.149-0.148,0.39-0.148,0.539,0l2.529,2.529C64.732,66.516,64.732,66.756,64.583,66.905"/>
		</g>
	</g>
	<path display="inline" fill="#0FAADA" d="M77.118,77.594c-6.373,0-9.642,3.132-12.526,5.895L64.57,83.51
		c-2.639,2.539-4.916,4.732-9.611,4.732c-4.688,0-6.969-2.189-9.625-4.739c-2.887-2.77-6.159-5.909-12.544-5.909
		c-5.725,0-8.936,2.543-11.497,4.927c-0.13,0.121-0.258,0.241-0.385,0.362C29.319,93.163,41.694,99.041,55,99.041
		c13.282,0,25.644-5.862,34.055-16.113c-0.127-0.121-0.256-0.242-0.386-0.363C86.092,80.16,82.862,77.594,77.118,77.594"/>
	<path display="inline" fill="#0FAADA" d="M55,5C27.386,5,5,27.386,5,55c0,27.615,22.386,50,50,50s50-22.386,50-50
		C105,27.386,82.614,5,55,5 M7.909,61.482c-0.002-0.012-0.004-0.023-0.006-0.035C7.905,61.459,7.907,61.471,7.909,61.482
		L7.909,61.482z M90.354,82.843C82.112,93.291,69.34,100,55,100c-14.361,0-27.151-6.728-35.391-17.204
		c-4.692-5.966-7.908-13.146-9.097-20.993C10.175,59.584,10,57.313,10,55c0-10.082,3.316-19.39,8.917-26.892
		C27.121,17.116,40.229,10,55,10c14.887,0,28.083,7.231,36.274,18.37C96.758,35.826,100,45.034,100,55
		c0,2.312-0.175,4.583-0.512,6.802C98.296,69.669,95.065,76.867,90.354,82.843"/>
	<path display="inline" fill="#0FAADA" d="M7.902,61.447c0.002,0.012,0.004,0.023,0.006,0.036h0l0-0.001
		C7.907,61.471,7.905,61.459,7.902,61.447"/>
</g>
<g id="Layer_5" display="none">
	<g display="inline" opacity="0.4">
		<g>
			<defs>
				<rect id="SVGID_15_" x="10.959" y="22.253" width="88.082" height="38.593"/>
			</defs>
			<clipPath id="SVGID_16_">
				<use xlink:href="#SVGID_15_"  overflow="visible"/>
			</clipPath>
			<path clip-path="url(#SVGID_16_)" fill="#0FAADA" d="M89.663,28.165c-2.882-2.771-6.147-5.912-12.545-5.912
				c-6.386,0-9.657,3.138-12.549,5.911c-2.638,2.54-4.916,4.732-9.61,4.732c-4.687,0-6.968-2.189-9.618-4.732
				c-2.741-2.634-6.152-5.912-12.551-5.912c-6.385,0-9.655,3.14-12.543,5.912c-0.207,0.198-0.409,0.392-0.611,0.582
				C13.959,36.381,10.959,45.457,10.959,55c0,1.946,0.128,3.9,0.382,5.822c3.439-0.201,5.19-1.88,7.577-4.168
				c2.991-2.872,6.714-6.445,13.871-6.445c7.173,0,11.05,3.726,13.893,6.457c2.533,2.428,4.363,4.183,8.275,4.183
				c3.92,0,5.749-1.759,8.287-4.199c2.991-2.869,6.714-6.44,13.872-6.44c7.173,0,11.047,3.726,13.886,6.457
				c2.403,2.296,4.167,3.979,7.655,4.161c0.254-1.923,0.383-3.879,0.383-5.827c0-9.423-2.935-18.408-8.486-25.989
				C90.262,28.738,89.967,28.456,89.663,28.165"/>
		</g>
	</g>
	<g display="inline" opacity="0.4">
		<g>
			<defs>
				<rect id="SVGID_17_" x="11.636" y="52.127" width="86.726" height="34.196"/>
			</defs>
			<clipPath id="SVGID_18_">
				<use xlink:href="#SVGID_17_"  overflow="visible"/>
			</clipPath>
			<path clip-path="url(#SVGID_18_)" fill="#0FAADA" d="M77.117,52.127c-6.387,0-9.658,3.138-12.549,5.91
				c-2.639,2.537-4.918,4.729-9.61,4.729c-4.684,0-6.964-2.186-9.617-4.729c-2.74-2.633-6.151-5.91-12.552-5.91
				c-6.386,0-9.656,3.14-12.544,5.911c-2.451,2.35-4.584,4.396-8.61,4.687c1.194,6.739,3.972,13.144,8.085,18.641
				c0.088-0.083,0.176-0.166,0.266-0.249c3.037-2.826,6.689-5.44,12.804-5.44c7.158,0,11.039,3.725,13.888,6.458
				c2.534,2.433,4.366,4.189,8.281,4.189c3.921,0,5.75-1.76,8.282-4.197l0.023-0.023c2.99-2.863,6.711-6.427,13.853-6.427
				c6.137,0,9.808,2.637,12.86,5.486c0.09,0.084,0.179,0.167,0.267,0.25c4.132-5.507,6.922-11.925,8.12-18.682
				c-4.073-0.271-6.221-2.323-8.702-4.693C86.781,55.267,83.517,52.127,77.117,52.127 M64.583,75.928l-2.529,2.53
				c-0.149,0.148-0.39,0.148-0.539,0L55,71.943l-6.514,6.515c-0.149,0.148-0.391,0.148-0.54,0l-2.53-2.53
				c-0.149-0.148-0.149-0.39,0-0.539l9.314-9.313c0.149-0.149,0.39-0.149,0.54,0l9.313,9.313
				C64.732,75.538,64.732,75.779,64.583,75.928"/>
		</g>
	</g>
	<path display="inline" fill="#0FAADA" d="M77.117,77.594c-6.372,0-9.641,3.132-12.525,5.895L64.57,83.51
		c-2.639,2.539-4.916,4.732-9.611,4.732c-4.688,0-6.969-2.189-9.625-4.739c-2.887-2.77-6.158-5.909-12.544-5.909
		c-5.724,0-8.936,2.543-11.497,4.927c-0.13,0.121-0.258,0.241-0.385,0.362C29.319,93.163,41.695,99.041,55,99.041
		c13.282,0,25.644-5.862,34.055-16.113c-0.127-0.121-0.256-0.242-0.387-0.363C86.092,80.16,82.862,77.594,77.117,77.594"/>
	<path display="inline" fill="#0FAADA" d="M55,5C27.386,5,5,27.386,5,55c0,27.615,22.386,50,50,50s50-22.386,50-50
		C105,27.386,82.614,5,55,5 M7.909,61.483c-0.002-0.013-0.004-0.024-0.006-0.036C7.905,61.459,7.907,61.471,7.909,61.483z
		 M90.354,82.843C82.112,93.291,69.34,100,55,100c-14.361,0-27.151-6.728-35.391-17.204c-4.692-5.965-7.908-13.146-9.098-20.992
		C10.175,59.584,10,57.313,10,55c0-10.082,3.316-19.39,8.917-26.892C27.121,17.116,40.229,10,55,10
		c14.887,0,28.083,7.23,36.274,18.369C96.758,35.826,100,45.034,100,55c0,2.312-0.175,4.583-0.512,6.802
		C98.296,69.669,95.065,76.867,90.354,82.843"/>
	<path display="inline" fill="#0FAADA" d="M7.902,61.447c0.002,0.012,0.004,0.023,0.006,0.036h0l0-0.001
		C7.907,61.471,7.905,61.459,7.902,61.447"/>
</g>
<g id="Layer_6" display="none">
	<g display="inline" opacity="0.2">
		<g>
			<defs>
				<rect id="SVGID_19_" x="10.959" y="22.255" width="88.082" height="38.591"/>
			</defs>
			<clipPath id="SVGID_20_">
				<use xlink:href="#SVGID_19_"  overflow="visible"/>
			</clipPath>
			<path clip-path="url(#SVGID_20_)" fill="#0FAADA" d="M54.958,60.848c-3.913,0-5.743-1.755-8.276-4.183
				c-2.843-2.731-6.72-6.457-13.893-6.457c-7.157,0-10.879,3.573-13.871,6.445c-2.386,2.288-4.138,3.967-7.577,4.168
				c-0.253-1.922-0.382-3.876-0.382-5.822c0-9.542,3-18.618,8.676-26.252c0.202-0.19,0.404-0.384,0.611-0.582
				c2.888-2.772,6.159-5.912,12.543-5.912c6.399,0,9.81,3.278,12.551,5.912c2.649,2.543,4.931,4.732,9.618,4.732
				c4.694,0,6.973-2.193,9.61-4.732c2.892-2.773,6.163-5.911,12.548-5.911c6.398,0,9.664,3.141,12.546,5.912
				c0.304,0.291,0.599,0.573,0.892,0.845c5.552,7.582,8.486,16.566,8.486,25.989c0,1.948-0.129,3.904-0.383,5.827
				c-3.489-0.182-5.252-1.865-7.654-4.161c-2.841-2.731-6.714-6.457-13.887-6.457c-7.158,0-10.881,3.571-13.872,6.44
				C60.707,59.089,58.878,60.848,54.958,60.848"/>
		</g>
	</g>
	<path display="inline" fill="#0FAADA" d="M54.959,86.323c-3.916,0-5.747-1.757-8.282-4.189c-2.848-2.733-6.729-6.458-13.887-6.458
		c-6.115,0-9.768,2.614-12.804,5.44c-0.09,0.083-0.178,0.166-0.266,0.249c-4.113-5.497-6.891-11.901-8.085-18.641
		c4.026-0.291,6.16-2.337,8.61-4.687c2.887-2.771,6.159-5.911,12.544-5.911c6.401,0,9.811,3.277,12.551,5.91
		c2.654,2.543,4.934,4.728,9.618,4.728c4.692,0,6.971-2.19,9.611-4.728c2.89-2.772,6.161-5.91,12.548-5.91
		c6.399,0,9.664,3.14,12.545,5.91c2.48,2.37,4.629,4.422,8.701,4.693c-1.198,6.757-3.987,13.175-8.119,18.682
		c-0.089-0.083-0.177-0.166-0.267-0.25c-3.053-2.85-6.724-5.486-12.86-5.486c-7.143,0-10.863,3.563-13.853,6.427l-0.023,0.023
		C60.709,84.563,58.881,86.323,54.959,86.323"/>
	<path display="inline" fill="#0FAADA" d="M55,99.041c-13.306,0-25.681-5.878-34.092-16.158c0.127-0.121,0.255-0.241,0.385-0.362
		c2.561-2.384,5.773-4.927,11.497-4.927c6.386,0,9.658,3.14,12.544,5.909c2.656,2.55,4.937,4.739,9.625,4.739
		c4.695,0,6.974-2.193,9.611-4.732l0.021-0.022c2.885-2.762,6.153-5.894,12.525-5.894c5.745,0,8.975,2.566,11.551,4.971
		c0.131,0.121,0.259,0.242,0.386,0.363C80.644,93.179,68.282,99.041,55,99.041"/>
	<path display="inline" fill="#0FAADA" d="M7.902,61.447c0.002,0.012,0.004,0.023,0.006,0.036h0v-0.001
		C7.907,61.471,7.905,61.459,7.902,61.447"/>
	<path display="inline" fill="#0FAADA" d="M55,5C27.386,5,5,27.386,5,55s22.386,50,50,50s50-22.386,50-50S82.614,5,55,5 M55,10
		c14.887,0,28.083,7.231,36.274,18.37C96.758,35.826,100,45.034,100,55c0,2.312-0.176,4.583-0.512,6.802
		c-1.192,7.866-4.423,15.065-9.135,21.041C82.113,93.292,69.34,100,55,100c-14.361,0-27.151-6.728-35.391-17.204
		c-4.692-5.965-7.908-13.146-9.098-20.992C10.175,59.584,10,57.313,10,55c0-10.083,3.316-19.39,8.917-26.893
		C27.121,17.116,40.229,10,55,10"/>
</g>
<g id="Layer_7">
	<path fill="#0FAADA" d="M31.185,55.248c0.002,0.012,0.004,0.023,0.006,0.035h0v0C31.189,55.271,31.187,55.26,31.185,55.248"/>
	<path opacity="0.2" fill="#0FAADA" d="M89.663,28.165c-2.882-2.771-6.147-5.912-12.546-5.912c-6.385,0-9.656,3.138-12.548,5.911
		c-2.638,2.54-4.916,4.732-9.611,4.732c-4.687,0-6.968-2.189-9.618-4.732c-2.741-2.634-6.152-5.912-12.551-5.912
		c-6.384,0-9.655,3.14-12.543,5.912c-0.207,0.198-0.409,0.392-0.611,0.582C13.959,36.381,10.959,45.457,10.959,55
		c0,1.946,0.128,3.9,0.382,5.822c3.439-0.201,5.191-1.88,7.578-4.168c2.991-2.872,6.714-6.445,13.871-6.445
		c7.173,0,11.05,3.726,13.893,6.457c2.533,2.428,4.363,4.183,8.275,4.183c3.92,0,5.749-1.759,8.287-4.199
		c2.991-2.869,6.714-6.44,13.872-6.44c7.173,0,11.047,3.726,13.886,6.457c2.403,2.296,4.166,3.979,7.655,4.161
		c0.254-1.923,0.383-3.879,0.383-5.827c0-9.423-2.935-18.408-8.486-25.989C90.262,28.738,89.967,28.456,89.663,28.165"/>
	<path fill="#0FAADA" d="M77.117,52.127c-6.387,0-9.658,3.138-12.549,5.91c-2.639,2.537-4.918,4.729-9.61,4.729
		c-4.684,0-6.963-2.186-9.617-4.729c-2.74-2.633-6.15-5.91-12.551-5.91c-6.386,0-9.656,3.14-12.544,5.911
		c-2.451,2.35-4.584,4.396-8.61,4.687c1.194,6.739,3.972,13.144,8.084,18.641c0.088-0.083,0.177-0.166,0.266-0.249
		c3.037-2.826,6.689-5.44,12.804-5.44c7.158,0,11.04,3.725,13.888,6.457c2.534,2.434,4.365,4.19,8.281,4.19
		c3.921,0,5.75-1.76,8.282-4.197l0.024-0.023c2.989-2.863,6.709-6.427,13.852-6.427c6.137,0,9.808,2.637,12.86,5.486
		c0.09,0.084,0.179,0.167,0.267,0.25c4.132-5.507,6.922-11.925,8.12-18.682c-4.073-0.271-6.221-2.323-8.702-4.693
		C86.782,55.267,83.517,52.127,77.117,52.127 M64.584,66.905l-9.314,9.313c-0.149,0.149-0.391,0.149-0.54,0l-9.313-9.313
		c-0.149-0.148-0.149-0.39,0-0.539l2.53-2.529c0.149-0.148,0.39-0.148,0.539,0L55,70.351l6.515-6.514
		c0.149-0.148,0.39-0.148,0.539,0l2.53,2.529C64.732,66.516,64.732,66.756,64.584,66.905"/>
	<path fill="#0FAADA" d="M77.117,77.594c-6.372,0-9.641,3.132-12.525,5.895L64.57,83.51c-2.639,2.539-4.916,4.732-9.611,4.732
		c-4.688,0-6.969-2.189-9.625-4.739c-2.887-2.77-6.159-5.909-12.544-5.909c-5.725,0-8.936,2.543-11.497,4.927
		c-0.13,0.121-0.258,0.241-0.385,0.362C29.319,93.163,41.694,99.041,55,99.041c13.282,0,25.644-5.862,34.055-16.113
		c-0.128-0.121-0.256-0.242-0.386-0.363C86.092,80.16,82.862,77.594,77.117,77.594"/>
	<path fill="#0FAADA" d="M55,5C27.386,5,5,27.386,5,55c0,27.615,22.386,50,50,50c27.615,0,50-22.386,50-50C105,27.386,82.614,5,55,5
		 M7.909,61.482c-0.002-0.012-0.004-0.023-0.006-0.035C7.905,61.459,7.907,61.471,7.909,61.482z M90.354,82.843
		C82.113,93.291,69.34,100,55,100c-14.361,0-27.151-6.728-35.39-17.204c-4.692-5.966-7.908-13.146-9.098-20.993
		C10.175,59.584,10,57.313,10,55c0-10.082,3.316-19.39,8.917-26.892C27.121,17.116,40.229,10,55,10
		c14.887,0,28.083,7.231,36.275,18.37C96.758,35.826,100,45.034,100,55c0,2.312-0.175,4.583-0.512,6.802
		C98.296,69.669,95.065,76.867,90.354,82.843"/>
	<path fill="#0FAADA" d="M7.902,61.447c0.002,0.012,0.004,0.023,0.006,0.036v-0.001C7.907,61.471,7.904,61.459,7.902,61.447"/>
</g>
</svg>
