<?xml version="1.0" encoding="utf-8"?>
<!-- Generator: Adobe Illustrator 16.0.2, SVG Export Plug-In . SVG Version: 6.00 Build 0)  -->
<!DOCTYPE svg PUBLIC "-//W3C//DTD SVG 1.1//EN" "http://www.w3.org/Graphics/SVG/1.1/DTD/svg11.dtd">
<svg version="1.1" id="Layer_1" xmlns="http://www.w3.org/2000/svg" xmlns:xlink="http://www.w3.org/1999/xlink" x="0px" y="0px"
	 width="110px" height="110px" viewBox="0 0 110 110" enable-background="new 0 0 110 110" xml:space="preserve">
<path fill="#FFFFFF" d="M106.956,49.373c-0.077-0.797-0.174-1.588-0.287-2.375C103.024,21.563,81.15,2.011,54.707,2.011
	c-26.511,0-48.429,19.652-51.99,45.182c-0.109,0.782-0.202,1.57-0.276,2.363c-0.153,1.631-0.234,3.283-0.234,4.955
	c0,7.145,1.43,13.954,4.015,20.163c0.3,0.72,0.617,1.432,0.947,2.135c3.254,6.925,7.975,13.022,13.764,17.893
	c9.128,7.681,20.91,12.31,33.774,12.31c16.074,0,30.455-7.229,40.085-18.606c2.063-2.437,3.911-5.06,5.507-7.848
	c3.488-6.092,5.785-12.951,6.587-20.262c0.209-1.9,0.321-3.828,0.321-5.784C107.207,52.777,107.12,51.063,106.956,49.373
	 M54.707,7.261c23.297,0,42.654,16.861,46.538,39.046c-6.412-1.106-10.954-2.999-15.661-4.963
	c-7.225-3.016-14.695-6.134-29.41-6.134c-14.714,0-22.185,3.119-29.41,6.134c-5.41,2.258-10.602,4.422-18.668,5.403
	C11.799,24.346,31.256,7.261,54.707,7.261 M101.882,57.098c-3.298-1.2-16.657-5.932-22.374-5.932
	c-6.547,0-19.977,10.564-34.077,13.083c-11.914,2.127-32.386-1.247-37.356-2.088c-0.406-2.489-0.618-5.045-0.618-7.649
	c0-1.815,0.106-3.605,0.305-5.367c8.808-1.001,14.43-3.345,19.907-5.631c7.334-3.061,14.262-5.953,28.504-5.953
	c14.244,0,21.171,2.892,28.505,5.953c4.833,2.017,9.779,4.079,16.927,5.224c0.23,1.893,0.352,3.819,0.352,5.774
	C101.957,55.379,101.928,56.241,101.882,57.098"/>
</svg>
