<?xml version="1.0" encoding="utf-8"?>
<!-- Generator: Adobe Illustrator 16.0.2, SVG Export Plug-In . SVG Version: 6.00 Build 0)  -->
<!DOCTYPE svg PUBLIC "-//W3C//DTD SVG 1.1//EN" "http://www.w3.org/Graphics/SVG/1.1/DTD/svg11.dtd">
<svg version="1.1" id="Layer_1" xmlns="http://www.w3.org/2000/svg" xmlns:xlink="http://www.w3.org/1999/xlink" x="0px" y="0px"
	 width="110px" height="110px" viewBox="0 0 110 110" enable-background="new 0 0 110 110" xml:space="preserve">
<path fill="#FFFFFF" d="M55.264,14.634c0.371,0,0.671-0.3,0.671-0.671V10.02c0-0.371-0.301-0.671-0.671-0.671
	s-0.672,0.301-0.672,0.671v3.942C54.592,14.333,54.893,14.634,55.264,14.634"/>
<path fill="#FFFFFF" d="M55.264,22.519c0.371,0,0.671-0.301,0.671-0.671v-3.942c0-0.371-0.301-0.671-0.671-0.671
	s-0.672,0.3-0.672,0.671v3.942C54.592,22.218,54.893,22.519,55.264,22.519"/>
<path fill="#FFFFFF" d="M55.264,30.404c0.371,0,0.671-0.301,0.671-0.671V25.79c0-0.371-0.301-0.671-0.671-0.671
	s-0.672,0.301-0.672,0.671v3.942C54.592,30.103,54.893,30.404,55.264,30.404"/>
<path fill="#FFFFFF" d="M55.264,96.082c-0.371,0-0.672,0.302-0.672,0.672v3.942c0,0.371,0.301,0.672,0.672,0.672
	s0.671-0.301,0.671-0.672v-3.942C55.935,96.384,55.634,96.082,55.264,96.082"/>
<path fill="#FFFFFF" d="M55.264,80.313c-0.371,0-0.672,0.302-0.672,0.672v3.942c0,0.371,0.301,0.672,0.672,0.672
	s0.671-0.301,0.671-0.672v-3.942C55.935,80.614,55.634,80.313,55.264,80.313"/>
<path fill="#FFFFFF" d="M55.264,88.197c-0.371,0-0.672,0.301-0.672,0.672v3.942c0,0.371,0.301,0.672,0.672,0.672
	s0.671-0.301,0.671-0.672v-3.942C55.935,88.498,55.634,88.197,55.264,88.197"/>
<path fill="#FFFFFF" d="M31.093,32.137c0.131,0.131,0.303,0.197,0.475,0.197c0.172,0,0.344-0.065,0.475-0.197
	c0.262-0.262,0.262-0.687,0-0.949L29.255,28.4c-0.262-0.262-0.687-0.262-0.95,0c-0.262,0.262-0.262,0.687,0,0.949L31.093,32.137z"/>
<path fill="#FFFFFF" d="M25.518,26.562c0.131,0.131,0.303,0.197,0.475,0.197s0.344-0.065,0.475-0.197
	c0.262-0.262,0.262-0.688,0-0.95l-2.788-2.788c-0.262-0.262-0.687-0.262-0.949,0s-0.262,0.688,0,0.95L25.518,26.562z"/>
<path fill="#FFFFFF" d="M36.668,37.713c0.131,0.131,0.303,0.197,0.475,0.197s0.344-0.065,0.475-0.197
	c0.262-0.262,0.262-0.688,0-0.95l-2.788-2.788c-0.262-0.262-0.687-0.262-0.949,0s-0.262,0.688,0,0.95L36.668,37.713z"/>
<path fill="#FFFFFF" d="M42.244,43.289c0.131,0.131,0.303,0.197,0.475,0.197s0.344-0.065,0.475-0.197
	c0.262-0.262,0.262-0.688,0-0.95l-2.788-2.788c-0.262-0.262-0.687-0.262-0.95,0c-0.262,0.262-0.262,0.687,0,0.949L42.244,43.289z"/>
<path fill="#FFFFFF" d="M85.01,84.155c-0.263-0.263-0.688-0.263-0.95,0c-0.262,0.262-0.262,0.687,0,0.949l2.788,2.787
	c0.131,0.132,0.303,0.197,0.475,0.197s0.344-0.065,0.475-0.197c0.263-0.262,0.263-0.687,0-0.949L85.01,84.155z"/>
<path fill="#FFFFFF" d="M86.848,22.825l-2.788,2.788c-0.262,0.262-0.262,0.688,0,0.95c0.132,0.131,0.303,0.197,0.475,0.197
	s0.344-0.066,0.475-0.197l2.788-2.788c0.263-0.262,0.263-0.688,0-0.95S87.109,22.563,86.848,22.825"/>
<path fill="#FFFFFF" d="M73.384,37.91c0.172,0,0.343-0.065,0.475-0.197l2.788-2.788c0.262-0.262,0.262-0.688,0-0.95
	c-0.263-0.262-0.688-0.262-0.949,0l-2.788,2.788c-0.263,0.262-0.263,0.687,0,0.949C73.04,37.845,73.212,37.91,73.384,37.91"/>
<path fill="#FFFFFF" d="M78.959,32.334c0.172,0,0.344-0.065,0.475-0.197l2.788-2.788c0.263-0.262,0.263-0.688,0-0.949
	c-0.262-0.262-0.688-0.262-0.949,0l-2.788,2.788c-0.263,0.262-0.263,0.688,0,0.949C78.615,32.269,78.787,32.334,78.959,32.334"/>
<path fill="#FFFFFF" d="M67.808,43.485c0.173,0,0.344-0.066,0.476-0.197l2.788-2.788c0.262-0.262,0.262-0.687,0-0.949
	c-0.263-0.262-0.688-0.262-0.95,0l-2.787,2.788c-0.263,0.262-0.263,0.688,0,0.95C67.465,43.419,67.636,43.485,67.808,43.485"/>
<path fill="#FFFFFF" d="M25.518,84.155l-2.788,2.787c-0.262,0.263-0.262,0.688,0,0.949c0.131,0.132,0.303,0.197,0.475,0.197
	c0.172,0,0.344-0.065,0.475-0.197l2.788-2.787c0.262-0.263,0.262-0.688,0-0.949C26.205,83.893,25.78,83.893,25.518,84.155"/>
<path fill="#FFFFFF" d="M73.005,56.03h3.942c0.371,0,0.671-0.301,0.671-0.672s-0.3-0.671-0.671-0.671h-3.942
	c-0.371,0-0.672,0.301-0.672,0.671S72.634,56.03,73.005,56.03"/>
<path fill="#FFFFFF" d="M25.695,54.687c-0.371,0-0.671,0.301-0.671,0.671s0.301,0.672,0.671,0.672h3.942
	c0.371,0,0.672-0.301,0.672-0.672s-0.301-0.671-0.672-0.671H25.695z"/>
<path fill="#FFFFFF" d="M13.868,54.687H9.926c-0.371,0-0.671,0.301-0.671,0.671s0.3,0.672,0.671,0.672h3.942
	c0.371,0,0.671-0.301,0.671-0.672S14.239,54.687,13.868,54.687"/>
<path fill="#FFFFFF" d="M21.753,54.687h-3.942c-0.371,0-0.671,0.301-0.671,0.671s0.3,0.672,0.671,0.672h3.942
	c0.371,0,0.671-0.301,0.671-0.672S22.124,54.687,21.753,54.687"/>
<path fill="#FFFFFF" d="M33.58,56.03h3.943c0.371,0,0.671-0.301,0.671-0.672s-0.301-0.671-0.671-0.671H33.58
	c-0.371,0-0.671,0.301-0.671,0.671S33.209,56.03,33.58,56.03"/>
<path fill="#FFFFFF" d="M92.717,54.687h-3.942c-0.371,0-0.671,0.301-0.671,0.671s0.3,0.672,0.671,0.672h3.942
	c0.371,0,0.672-0.301,0.672-0.672S93.088,54.687,92.717,54.687"/>
<path fill="#FFFFFF" d="M100.602,54.687h-3.942c-0.371,0-0.671,0.301-0.671,0.671s0.3,0.672,0.671,0.672h3.942
	c0.371,0,0.672-0.301,0.672-0.672S100.973,54.687,100.602,54.687"/>
<path fill="#FFFFFF" d="M80.218,55.358c0,0.371,0.301,0.672,0.672,0.672h3.942c0.371,0,0.672-0.301,0.672-0.672
	s-0.301-0.671-0.672-0.671H80.89C80.519,54.687,80.218,54.988,80.218,55.358"/>
<path fill="#FFFFFF" d="M55.264,2.858c-28.995,0-52.5,23.505-52.5,52.5c0,28.995,23.505,52.5,52.5,52.5
	c28.995,0,52.5-23.505,52.5-52.5C107.764,26.364,84.259,2.858,55.264,2.858 M55.264,102.608c-26.096,0-47.25-21.154-47.25-47.25
	c0-26.096,21.154-47.25,47.25-47.25s47.25,21.154,47.25,47.25C102.514,81.454,81.359,102.608,55.264,102.608"/>
<polygon fill="#FFFFFF" points="27.815,83.617 52.643,78.746 54.951,48.057 55.288,48.057 57.597,78.746 82.426,83.617 
	55.124,32.472 "/>
</svg>
