<?xml version="1.0" encoding="utf-8"?>
<!-- Generator: Adobe Illustrator 16.0.2, SVG Export Plug-In . SVG Version: 6.00 Build 0)  -->
<!DOCTYPE svg PUBLIC "-//W3C//DTD SVG 1.1//EN" "http://www.w3.org/Graphics/SVG/1.1/DTD/svg11.dtd">
<svg version="1.1" id="Layer_1" xmlns="http://www.w3.org/2000/svg" xmlns:xlink="http://www.w3.org/1999/xlink" x="0px" y="0px"
	 width="110px" height="110px" viewBox="0 0 110 110" enable-background="new 0 0 110 110" xml:space="preserve">
<g>
	<path fill="#006989" d="M55,16.856c0.353,0,0.64-0.286,0.64-0.639v-3.755c0-0.353-0.287-0.639-0.64-0.639s-0.64,0.286-0.64,0.639
		v3.755C54.36,16.57,54.647,16.856,55,16.856"/>
	<path fill="#006989" d="M55,24.366c0.353,0,0.64-0.287,0.64-0.64v-3.754c0-0.354-0.287-0.64-0.64-0.64s-0.64,0.286-0.64,0.64v3.754
		C54.36,24.08,54.647,24.366,55,24.366"/>
	<path fill="#006989" d="M55,31.875c0.353,0,0.64-0.286,0.64-0.64v-3.754c0-0.353-0.287-0.64-0.64-0.64s-0.64,0.287-0.64,0.64v3.754
		C54.36,31.589,54.647,31.875,55,31.875"/>
	<path fill="#006989" d="M55,94.427c-0.353,0-0.64,0.286-0.64,0.639v3.755c0,0.354,0.287,0.64,0.64,0.64s0.64-0.286,0.64-0.64
		v-3.755C55.64,94.713,55.353,94.427,55,94.427"/>
	<path fill="#006989" d="M55,79.407c-0.353,0-0.64,0.287-0.64,0.64v3.755c0,0.354,0.287,0.64,0.64,0.64s0.64-0.286,0.64-0.64v-3.755
		C55.64,79.694,55.353,79.407,55,79.407"/>
	<path fill="#006989" d="M55,86.917c-0.353,0-0.64,0.286-0.64,0.64v3.755c0,0.353,0.287,0.64,0.64,0.64s0.64-0.287,0.64-0.64v-3.755
		C55.64,87.203,55.353,86.917,55,86.917"/>
	<path fill="#006989" d="M31.98,33.526c0.125,0.125,0.289,0.188,0.452,0.188s0.328-0.063,0.452-0.188c0.25-0.25,0.25-0.654,0-0.904
		l-2.655-2.655c-0.25-0.25-0.654-0.25-0.904,0c-0.25,0.25-0.25,0.654,0,0.904L31.98,33.526z"/>
	<path fill="#006989" d="M26.671,28.216c0.125,0.125,0.288,0.188,0.452,0.188c0.164,0,0.327-0.062,0.452-0.188
		c0.25-0.249,0.25-0.654,0-0.904l-2.655-2.655c-0.25-0.25-0.654-0.25-0.904,0s-0.25,0.655,0,0.904L26.671,28.216z"/>
	<path fill="#006989" d="M37.291,38.836c0.125,0.125,0.288,0.187,0.452,0.187c0.164,0,0.328-0.062,0.452-0.187
		c0.25-0.25,0.25-0.655,0-0.904l-2.655-2.655c-0.25-0.25-0.654-0.25-0.904,0c-0.25,0.25-0.25,0.654,0,0.904L37.291,38.836z"/>
	<path fill="#006989" d="M42.601,44.146c0.125,0.125,0.289,0.188,0.452,0.188s0.327-0.062,0.452-0.188c0.25-0.25,0.25-0.655,0-0.904
		l-2.655-2.655c-0.25-0.25-0.654-0.25-0.904,0c-0.25,0.25-0.25,0.655,0,0.904L42.601,44.146z"/>
	<path fill="#006989" d="M83.329,83.066c-0.25-0.249-0.654-0.249-0.904,0c-0.25,0.25-0.25,0.655,0,0.904l2.655,2.655
		c0.125,0.125,0.288,0.188,0.452,0.188c0.163,0,0.327-0.063,0.452-0.188c0.25-0.249,0.25-0.654,0-0.904L83.329,83.066z"/>
	<path fill="#006989" d="M85.08,24.657l-2.655,2.655c-0.25,0.25-0.25,0.655,0,0.904c0.125,0.125,0.289,0.188,0.452,0.188
		c0.164,0,0.327-0.063,0.452-0.188l2.655-2.655c0.25-0.25,0.25-0.655,0-0.904S85.33,24.408,85.08,24.657"/>
	<path fill="#006989" d="M72.257,39.024c0.164,0,0.327-0.062,0.452-0.188l2.655-2.655c0.25-0.25,0.25-0.655,0-0.904
		c-0.25-0.25-0.654-0.25-0.904,0l-2.655,2.655c-0.249,0.25-0.249,0.655,0,0.904C71.93,38.962,72.093,39.024,72.257,39.024"/>
	<path fill="#006989" d="M77.566,33.714c0.164,0,0.328-0.063,0.452-0.188l2.656-2.655c0.249-0.25,0.249-0.655,0-0.904
		c-0.25-0.25-0.655-0.25-0.904,0l-2.656,2.655c-0.249,0.25-0.249,0.655,0,0.904C77.239,33.651,77.403,33.714,77.566,33.714"/>
	<path fill="#006989" d="M66.947,44.334c0.163,0,0.327-0.063,0.452-0.188l2.655-2.655c0.25-0.25,0.25-0.654,0-0.904
		c-0.25-0.25-0.654-0.25-0.904,0l-2.655,2.655c-0.25,0.25-0.25,0.654,0,0.904C66.62,44.271,66.783,44.334,66.947,44.334"/>
	<path fill="#006989" d="M26.671,83.066l-2.655,2.655c-0.25,0.25-0.25,0.655,0,0.904c0.125,0.125,0.289,0.188,0.452,0.188
		s0.327-0.063,0.452-0.188l2.655-2.655c0.25-0.249,0.25-0.654,0-0.904C27.325,82.817,26.92,82.817,26.671,83.066"/>
	<path fill="#006989" d="M71.896,56.281h3.754c0.354,0,0.64-0.286,0.64-0.64c0-0.353-0.286-0.64-0.64-0.64h-3.754
		c-0.354,0-0.64,0.287-0.64,0.64C71.257,55.995,71.543,56.281,71.896,56.281"/>
	<path fill="#006989" d="M26.84,55.002c-0.353,0-0.64,0.287-0.64,0.64c0,0.354,0.287,0.64,0.64,0.64h3.755
		c0.353,0,0.639-0.286,0.639-0.64c0-0.353-0.286-0.64-0.639-0.64H26.84z"/>
	<path fill="#006989" d="M15.576,55.002h-3.755c-0.353,0-0.639,0.287-0.639,0.64c0,0.354,0.286,0.64,0.639,0.64h3.755
		c0.353,0,0.639-0.286,0.639-0.64C16.215,55.289,15.928,55.002,15.576,55.002"/>
	<path fill="#006989" d="M23.085,55.002h-3.754c-0.354,0-0.64,0.287-0.64,0.64c0,0.354,0.286,0.64,0.64,0.64h3.754
		c0.353,0,0.64-0.286,0.64-0.64C23.725,55.289,23.438,55.002,23.085,55.002"/>
	<path fill="#006989" d="M34.349,56.281h3.755c0.353,0,0.64-0.286,0.64-0.64c0-0.353-0.287-0.64-0.64-0.64h-3.755
		c-0.353,0-0.64,0.287-0.64,0.64C33.709,55.995,33.996,56.281,34.349,56.281"/>
	<path fill="#006989" d="M90.67,55.002h-3.755c-0.354,0-0.64,0.287-0.64,0.64c0,0.354,0.286,0.64,0.64,0.64h3.755
		c0.353,0,0.64-0.286,0.64-0.64C91.31,55.289,91.022,55.002,90.67,55.002"/>
	<path fill="#006989" d="M98.179,55.002h-3.754c-0.354,0-0.64,0.287-0.64,0.64c0,0.354,0.286,0.64,0.64,0.64h3.754
		c0.354,0,0.64-0.286,0.64-0.64C98.818,55.289,98.532,55.002,98.179,55.002"/>
	<path fill="#006989" d="M78.766,55.642c0,0.354,0.287,0.64,0.64,0.64h3.756c0.353,0,0.639-0.286,0.639-0.64
		c0-0.353-0.286-0.64-0.639-0.64h-3.756C79.053,55.002,78.766,55.289,78.766,55.642"/>
	<path fill="#006989" d="M55,5.642c-27.614,0-50,22.386-50,50s22.386,50,50,50s50-22.386,50-50S82.614,5.642,55,5.642 M55,100.642
		c-24.853,0-45-20.147-45-45s20.147-45,45-45c24.854,0,45,20.147,45,45S79.854,100.642,55,100.642"/>
	<polygon fill="#006989" points="28.859,82.555 52.504,77.915 54.702,48.688 55.022,48.688 57.222,77.915 80.869,82.555 
		54.866,33.845 	"/>
</g>
</svg>
